<svg width="18" height="20" viewBox="0 0 18 20" fill="none" xmlns="http://www.w3.org/2000/svg">
<path d="M18 6.94C17.9896 6.84813 17.9695 6.75763 17.94 6.67V6.58C17.8919 6.47718 17.8278 6.38267 17.75 6.3L11.75 0.3C11.6673 0.222216 11.5728 0.158081 11.47 0.11C11.4402 0.10576 11.4099 0.10576 11.38 0.11C11.2784 0.0517412 11.1662 0.0143442 11.05 0H7C6.20435 0 5.44129 0.316071 4.87868 0.87868C4.31607 1.44129 4 2.20435 4 3V4H3C2.20435 4 1.44129 4.31607 0.87868 4.87868C0.316071 5.44129 0 6.20435 0 7V17C0 17.7956 0.316071 18.5587 0.87868 19.1213C1.44129 19.6839 2.20435 20 3 20H11C11.7956 20 12.5587 19.6839 13.1213 19.1213C13.6839 18.5587 14 17.7956 14 17V16H15C15.7956 16 16.5587 15.6839 17.1213 15.1213C17.6839 14.5587 18 13.7956 18 13V7C18 7 18 7 18 6.94ZM12 3.41L14.59 6H13C12.7348 6 12.4804 5.89464 12.2929 5.70711C12.1054 5.51957 12 5.26522 12 5V3.41ZM12 17C12 17.2652 11.8946 17.5196 11.7071 17.7071C11.5196 17.8946 11.2652 18 11 18H3C2.73478 18 2.48043 17.8946 2.29289 17.7071C2.10536 17.5196 2 17.2652 2 17V7C2 6.73478 2.10536 6.48043 2.29289 6.29289C2.48043 6.10536 2.73478 6 3 6H4V13C4 13.7956 4.31607 14.5587 4.87868 15.1213C5.44129 15.6839 6.20435 16 7 16H12V17ZM16 13C16 13.2652 15.8946 13.5196 15.7071 13.7071C15.5196 13.8946 15.2652 14 15 14H7C6.73478 14 6.48043 13.8946 6.29289 13.7071C6.10536 13.5196 6 13.2652 6 13V3C6 2.73478 6.10536 2.48043 6.29289 2.29289C6.48043 2.10536 6.73478 2 7 2H10V5C10 5.79565 10.3161 6.55871 10.8787 7.12132C11.4413 7.68393 12.2044 8 13 8H16V13Z" fill="#161C21"/>
</svg>
