<svg width="101" height="101" viewBox="0 0 101 101" fill="none" xmlns="http://www.w3.org/2000/svg">
<path d="M50.5148 42.534C50.7136 42.7328 50.7136 42.7327 50.7136 42.9315L56.6763 48.6955L60.0552 52.0743C69.198 60.8196 65.6203 67.5773 59.0614 74.1363C52.7012 80.4965 44.7509 82.2853 37.9932 75.9251L37.7944 75.7263C37.5957 75.5276 37.5956 75.5276 37.5956 75.5276L4.00579 41.3414C2.41574 39.7514 2.21697 39.9502 1.6207 41.9377C0.626922 44.7203 -0.168096 48.6955 0.0306607 50.683C0.825687 71.7512 30.2417 100.968 50.5148 100.77C67.2104 100.571 82.1171 85.0679 92.2537 71.1549C92.6512 70.5587 92.4525 69.7637 92.055 69.3661C81.3221 58.832 70.3905 47.3042 59.4589 36.7701L58.4651 35.7763L57.4713 34.9812L57.2726 34.7825C56.4775 33.9875 55.285 33.7887 53.8937 33.9875C51.5086 34.1862 49.1235 36.3725 48.9248 38.9564C48.9248 40.1489 49.1235 41.3415 49.9186 42.1365L50.5148 42.534Z" fill="white"/>
<path d="M50.5148 42.534C50.7136 42.7328 50.7136 42.7327 50.7136 42.9315L56.6763 48.6955L60.0552 52.0743C69.198 60.8196 65.6203 67.5773 59.0614 74.1363C52.7012 80.4965 44.7509 82.2853 37.9932 75.9251L37.7944 75.7263C37.5957 75.5276 37.5956 75.5276 37.5956 75.5276L4.00579 41.3414C2.41574 39.7514 2.21697 39.9502 1.6207 41.9377C0.626922 44.7203 -0.168096 48.6955 0.0306607 50.683C0.825687 71.7512 30.2417 100.968 50.5148 100.77C67.2104 100.571 82.1171 85.0679 92.2537 71.1549C92.6512 70.5587 92.4525 69.7637 92.055 69.3661C81.3221 58.832 70.3905 47.3042 59.4589 36.7701L58.4651 35.7763L57.4713 34.9812L57.2726 34.7825C56.4775 33.9875 55.285 33.7887 53.8937 33.9875C51.5086 34.1862 49.1235 36.3725 48.9248 38.9564C48.9248 40.1489 49.1235 41.3415 49.9186 42.1365L50.5148 42.534Z" fill="url(#paint0_linear_166_1554)"/>
<path d="M51.1077 0C34.2134 0.198757 18.3128 16.6956 8.375 30.6085L42.5611 64.7947C42.7599 64.9934 42.7599 64.9934 42.9587 65.1922C44.1512 66.3847 45.7412 66.981 47.53 66.981C49.7164 66.7822 51.9027 64.5959 51.9027 62.0121C52.1015 60.0245 51.1077 58.6332 49.5176 57.0431L39.9773 47.5028L39.7786 47.3041C33.8159 41.1426 34.8096 33.5899 41.7661 26.2359C47.7288 20.0744 55.6791 17.8881 62.8343 24.8446L64.2256 26.2359L98.6105 60.6208C99.803 58.2357 100.996 54.0618 100.996 50.4842C101.194 29.2172 71.1821 0 51.1077 0Z" fill="white"/>
<path d="M51.1077 0C34.2134 0.198757 18.3128 16.6956 8.375 30.6085L42.5611 64.7947C42.7599 64.9934 42.7599 64.9934 42.9587 65.1922C44.1512 66.3847 45.7412 66.981 47.53 66.981C49.7164 66.7822 51.9027 64.5959 51.9027 62.0121C52.1015 60.0245 51.1077 58.6332 49.5176 57.0431L39.9773 47.5028L39.7786 47.3041C33.8159 41.1426 34.8096 33.5899 41.7661 26.2359C47.7288 20.0744 55.6791 17.8881 62.8343 24.8446L64.2256 26.2359L98.6105 60.6208C99.803 58.2357 100.996 54.0618 100.996 50.4842C101.194 29.2172 71.1821 0 51.1077 0Z" fill="url(#paint1_linear_166_1554)"/>
<defs>
<linearGradient id="paint0_linear_166_1554" x1="0" y1="67.3432" x2="92.4645" y2="67.3432" gradientUnits="userSpaceOnUse">
<stop stop-color="#005055"/>
<stop offset="1" stop-color="#006464"/>
</linearGradient>
<linearGradient id="paint1_linear_166_1554" x1="8.375" y1="33.4905" x2="100.991" y2="33.4905" gradientUnits="userSpaceOnUse">
<stop stop-color="#005055"/>
<stop offset="1" stop-color="#006464"/>
</linearGradient>
</defs>
</svg>
