<?xml version="1.0" encoding="utf-8"?>
<!-- Generator: Adobe Illustrator 25.0.0, SVG Export Plug-In . SVG Version: 6.00 Build 0)  -->
<svg version="1.1" id="圖層_1" xmlns="http://www.w3.org/2000/svg" xmlns:xlink="http://www.w3.org/1999/xlink" x="0px" y="0px"
	 viewBox="0 0 331.4 70.3" style="enable-background:new 0 0 331.4 70.3;" xml:space="preserve">
<style type="text/css">
	.st0{fill:url(#XMLID_2_);}
	.st1{fill:url(#XMLID_3_);}
	.st2{fill:#383331;}
</style>
<g id="XMLID_977_">
	<g id="XMLID_998_">
		<g id="XMLID_1041_">
			<g id="XMLID_1042_">
				<linearGradient id="XMLID_2_" gradientUnits="userSpaceOnUse" x1="14.6245" y1="24.5498" x2="45.7183" y2="62.4842">
					<stop  offset="0" style="stop-color:#005055"/>
					<stop  offset="1" style="stop-color:#006464"/>
				</linearGradient>
				<path id="XMLID_1045_" class="st0" d="M35.2,29.5c0.1,0.1,0.2,0.2,0.2,0.3l4.1,4l2.4,2.4c6.3,6.1,3.8,10.8-0.7,15.3
					c-4.4,4.4-9.9,5.6-14.7,1.2l-0.1-0.1c-0.1-0.1-0.1-0.1-0.2-0.2L2.8,28.7c-1.1-1.1-1.2-1-1.7,0.4c-0.7,2-1.2,4.7-1.1,6.1
					C0.6,49.9,21,70.1,35.1,70c11.6-0.1,22-10.9,29-20.6c0.3-0.4,0.2-1-0.1-1.3c-7.5-7.3-15.1-15.3-22.6-22.6l0,0l-0.7-0.7
					c0,0,0,0,0,0L40,24.2c0,0-0.1-0.1-0.2-0.1c-0.6-0.5-1.4-0.7-2.3-0.6c-1.7,0.1-3.3,1.7-3.4,3.4c0,0.8,0.2,1.6,0.7,2.2L35.2,29.5z
					"/>
				<g id="XMLID_1043_">
					<linearGradient id="XMLID_3_" gradientUnits="userSpaceOnUse" x1="30.6849" y1="45.0741" x2="48.3469" y2="9.2148">
						<stop  offset="0" style="stop-color:#138F8F"/>
						<stop  offset="1" style="stop-color:#4DBCBC"/>
					</linearGradient>
					<path id="XMLID_1044_" class="st1" d="M35.5,0C23.8,0.1,12.8,11.6,5.9,21.2l23.7,23.7c0.1,0.1,0.2,0.2,0.3,0.3
						c0.8,0.8,2,1.3,3.2,1.2c1.5-0.2,3-1.7,3.1-3.4c0.1-1.4-0.6-2.4-1.6-3.4l-6.6-6.6l-0.2-0.2c-4.1-4.3-3.5-9.5,1.4-14.6
						c4.1-4.3,9.6-5.8,14.7-1l0.9,0.9L68.7,42c0.8-1.6,1.6-4.6,1.6-7C70.3,20.3,49.5-0.1,35.5,0z"/>
				</g>
			</g>
		</g>
		<g id="XMLID_999_">
			<path id="XMLID_1039_" class="st2" d="M91.7,65.5V48.6h2.4v16.9H91.7z"/>
			<path id="XMLID_1037_" class="st2" d="M100.3,65.5V53.1h2.2v2.3c1.2-1.7,2.6-2.6,4.3-2.6c1.1,0,1.9,0.3,2.5,1
				c0.6,0.7,0.9,1.6,0.9,2.8v8.9H108v-8.2c0-0.9-0.1-1.6-0.4-2c-0.3-0.4-0.7-0.6-1.3-0.6c-1.4,0-2.6,0.9-3.8,2.7v8H100.3z"/>
			<path id="XMLID_1035_" class="st2" d="M120,65.8c-1.1,0-2-0.3-2.6-1c-0.6-0.7-0.9-1.6-0.9-2.7v-7.3h-1.5v-1.7h1.5v-2.3l2.2-0.2
				v2.5h3.2v1.7h-3.2v6.9c0,1.6,0.7,2.4,2.1,2.4c0.3,0,0.6,0,1.1-0.1v1.6C121.1,65.7,120.5,65.8,120,65.8z"/>
			<path id="XMLID_1032_" class="st2" d="M135.7,65.1c-1.5,0.5-2.7,0.7-3.8,0.7c-1.8,0-3.3-0.6-4.4-1.8c-1.1-1.2-1.7-2.8-1.7-4.7
				c0-1.9,0.5-3.4,1.5-4.6c1-1.2,2.3-1.8,3.8-1.8c1.5,0,2.6,0.5,3.4,1.6c0.8,1.1,1.2,2.6,1.2,4.6l0,0.7h-7.7c0.3,3,1.7,4.4,4.3,4.4
				c0.9,0,2-0.3,3.4-0.8V65.1z M128.2,58h5.4c0-2.3-0.8-3.5-2.5-3.5C129.3,54.5,128.4,55.7,128.2,58z"/>
			<path id="XMLID_1030_" class="st2" d="M141.4,65.5V47.5h2.2v18.1H141.4z"/>
			<path id="XMLID_1028_" class="st2" d="M149.9,65.5V47.5h2.2v18.1H149.9z"/>
			<path id="XMLID_1025_" class="st2" d="M158.4,50.9v-2.3h2.2v2.3H158.4z M158.4,65.5V53.1h2.2v12.4H158.4z"/>
			<path id="XMLID_1022_" class="st2" d="M166.9,69.7l0.3-2c1.3,0.6,2.5,0.9,3.8,0.9c2.5,0,3.7-1.3,3.7-4v-2c-0.8,1.7-2.2,2.6-4,2.6
				c-1.5,0-2.6-0.5-3.5-1.6s-1.3-2.5-1.3-4.4c0-1.9,0.5-3.4,1.5-4.6c1-1.2,2.2-1.8,3.8-1.8c1.4,0,2.5,0.6,3.5,1.7v-1.4h2.2v9
				c0,1.9-0.1,3.4-0.3,4.3c-0.2,0.9-0.6,1.7-1.1,2.3c-1,1-2.5,1.6-4.5,1.6C169.6,70.3,168.2,70.1,166.9,69.7z M174.7,61.2v-5.2
				c-1-1-2-1.5-3.2-1.5c-1,0-1.8,0.4-2.4,1.2c-0.6,0.8-0.9,2-0.9,3.4c0,2.7,0.9,4.1,2.8,4.1C172.3,63.3,173.5,62.6,174.7,61.2z"/>
			<path id="XMLID_1019_" class="st2" d="M191.9,65.1c-1.5,0.5-2.7,0.7-3.8,0.7c-1.8,0-3.3-0.6-4.4-1.8c-1.1-1.2-1.7-2.8-1.7-4.7
				c0-1.9,0.5-3.4,1.5-4.6c1-1.2,2.3-1.8,3.8-1.8c1.5,0,2.6,0.5,3.4,1.6c0.8,1.1,1.2,2.6,1.2,4.6l0,0.7h-7.7c0.3,3,1.7,4.4,4.2,4.4
				c0.9,0,2-0.3,3.4-0.8V65.1z M184.4,58h5.4c0-2.3-0.8-3.5-2.5-3.5C185.5,54.5,184.6,55.7,184.4,58z"/>
			<path id="XMLID_1017_" class="st2" d="M197.6,65.5V53.1h2.2v2.3c1.2-1.7,2.6-2.6,4.3-2.6c1.1,0,1.9,0.3,2.5,1
				c0.6,0.7,0.9,1.6,0.9,2.8v8.9h-2.2v-8.2c0-0.9-0.1-1.6-0.4-2c-0.3-0.4-0.7-0.6-1.3-0.6c-1.4,0-2.6,0.9-3.8,2.7v8H197.6z"/>
			<path id="XMLID_1015_" class="st2" d="M217.4,65.8c-1.1,0-2-0.3-2.6-1c-0.6-0.7-0.9-1.6-0.9-2.7v-7.3h-1.5v-1.7h1.5v-2.3l2.2-0.2
				v2.5h3.2v1.7H216v6.9c0,1.6,0.7,2.4,2.1,2.4c0.3,0,0.6,0,1.1-0.1v1.6C218.5,65.7,217.9,65.8,217.4,65.8z"/>
			<path id="XMLID_1013_" class="st2" d="M236.4,66c-1.1,0-2.5-0.2-4.3-0.7v-2.4c1.9,0.9,3.4,1.3,4.6,1.3c0.9,0,1.7-0.2,2.2-0.7
				c0.6-0.5,0.8-1.1,0.8-2c0-0.7-0.2-1.2-0.6-1.7c-0.4-0.5-1.1-1-2-1.6l-1.1-0.7c-1.4-0.8-2.4-1.6-3-2.3c-0.6-0.7-0.9-1.6-0.9-2.5
				c0-1.3,0.5-2.4,1.4-3.2c0.9-0.8,2.1-1.3,3.5-1.3c1.3,0,2.6,0.2,4,0.7V51c-1.8-0.7-3.1-1.1-3.9-1.1c-0.8,0-1.5,0.2-2,0.7
				c-0.5,0.4-0.8,1-0.8,1.7c0,0.6,0.2,1.1,0.6,1.5c0.4,0.4,1.1,1,2.1,1.6l1.2,0.7c1.4,0.8,2.4,1.6,3,2.4c0.6,0.7,0.9,1.6,0.9,2.7
				c0,1.5-0.5,2.7-1.6,3.5C239.6,65.5,238.2,66,236.4,66z"/>
			<path id="XMLID_1011_" class="st2" d="M248.2,70.1l2-4.5l-4.7-12.4h2.4l3.5,9.4l3.7-9.4h2.1l-6.7,16.9H248.2z"/>
			<path id="XMLID_1009_" class="st2" d="M264.5,65.8c-1,0-2.2-0.2-3.7-0.7V63c1.4,0.7,2.7,1.1,3.8,1.1c0.6,0,1.2-0.2,1.6-0.5
				s0.6-0.8,0.6-1.3c0-0.8-0.6-1.4-1.8-1.9l-1.3-0.6c-1.9-0.8-2.9-2-2.9-3.5c0-1.1,0.4-1.9,1.1-2.6c0.8-0.6,1.8-0.9,3.1-0.9
				c0.7,0,1.5,0.1,2.5,0.3l0.5,0.1v1.9c-1.2-0.4-2.2-0.6-2.9-0.6c-1.4,0-2.1,0.5-2.1,1.6c0,0.7,0.5,1.3,1.6,1.7l1.1,0.5
				c1.2,0.5,2.1,1.1,2.6,1.6c0.5,0.6,0.8,1.3,0.8,2.2c0,1.1-0.4,2-1.3,2.7C266.9,65.5,265.9,65.8,264.5,65.8z"/>
			<path id="XMLID_1007_" class="st2" d="M278.5,65.8c-1.1,0-2-0.3-2.6-1c-0.6-0.7-0.9-1.6-0.9-2.7v-7.3h-1.5v-1.7h1.5v-2.3l2.2-0.2
				v2.5h3.2v1.7h-3.2v6.9c0,1.6,0.7,2.4,2.1,2.4c0.3,0,0.6,0,1.1-0.1v1.6C279.6,65.7,279,65.8,278.5,65.8z"/>
			<path id="XMLID_1004_" class="st2" d="M294.2,65.1c-1.5,0.5-2.7,0.7-3.8,0.7c-1.8,0-3.3-0.6-4.4-1.8c-1.1-1.2-1.7-2.8-1.7-4.7
				c0-1.9,0.5-3.4,1.5-4.6c1-1.2,2.3-1.8,3.8-1.8c1.5,0,2.6,0.5,3.4,1.6c0.8,1.1,1.2,2.6,1.2,4.6l0,0.7h-7.7c0.3,3,1.7,4.4,4.2,4.4
				c0.9,0,2-0.3,3.4-0.8V65.1z M286.7,58h5.4c0-2.3-0.8-3.5-2.5-3.5C287.8,54.5,286.9,55.7,286.7,58z"/>
			<path id="XMLID_1002_" class="st2" d="M299.9,65.5V53.1h2.2v2.3c1.1-1.7,2.5-2.6,4.1-2.6c1.6,0,2.7,0.9,3.3,2.6
				c1-1.7,2.4-2.6,4.1-2.6c1.1,0,1.9,0.3,2.5,1c0.6,0.6,0.9,1.5,0.9,2.7v9h-2.2v-8.7c0-1.4-0.5-2.1-1.6-2.1c-1.1,0-2.3,0.8-3.6,2.5
				v8.3h-2.2v-8.7c0-1.4-0.6-2.1-1.7-2.1c-1.1,0-2.3,0.8-3.6,2.5v8.3H299.9z"/>
			<path id="XMLID_1000_" class="st2" d="M326.4,65.8c-1,0-2.2-0.2-3.7-0.7V63c1.4,0.7,2.7,1.1,3.8,1.1c0.6,0,1.2-0.2,1.6-0.5
				s0.6-0.8,0.6-1.3c0-0.8-0.6-1.4-1.8-1.9l-1.3-0.6c-1.9-0.8-2.9-2-2.9-3.5c0-1.1,0.4-1.9,1.1-2.6c0.8-0.6,1.8-0.9,3.1-0.9
				c0.7,0,1.5,0.1,2.5,0.3l0.5,0.1v1.9c-1.2-0.4-2.2-0.6-2.9-0.6c-1.4,0-2.1,0.5-2.1,1.6c0,0.7,0.5,1.3,1.6,1.7l1.1,0.5
				c1.2,0.5,2.1,1.1,2.6,1.6c0.5,0.6,0.8,1.3,0.8,2.2c0,1.1-0.4,2-1.3,2.7C328.8,65.5,327.7,65.8,326.4,65.8z"/>
		</g>
	</g>
	<g id="XMLID_978_">
		<path id="XMLID_996_" class="st2" d="M92,31.8v-4.6c2.9,1.2,5.3,1.8,7.3,1.8c1.4,0,2.5-0.3,3.4-1c0.8-0.6,1.2-1.5,1.2-2.6
			c0-0.9-0.3-1.6-0.8-2.2c-0.5-0.6-1.5-1.3-2.9-2.2l-1.8-1c-2.4-1.4-4.1-2.7-5-3.9c-1-1.3-1.5-2.7-1.5-4.4c0-2.2,0.8-4,2.4-5.4
			c1.6-1.4,3.7-2,6.4-2c2.1,0,4.5,0.3,7.2,0.9v4.3c-2.7-1-4.9-1.6-6.4-1.6c-1.2,0-2.2,0.3-2.9,0.8c-0.7,0.6-1.1,1.3-1.1,2.2
			c0,0.7,0.3,1.4,0.8,2c0.5,0.6,1.5,1.3,2.9,2.1l1.9,1.1c2.6,1.5,4.3,2.8,5.3,4c1,1.2,1.5,2.7,1.5,4.5c0,2.5-0.9,4.5-2.7,5.9
			c-1.8,1.4-4.4,2.1-7.6,2.1C97.3,32.7,94.8,32.4,92,31.8z"/>
		<path id="XMLID_994_" class="st2" d="M125.6,32V20.7L116.7,5h6.1l6.5,11.4L136,5h4.4l-9.3,15.7V32H125.6z"/>
		<path id="XMLID_992_" class="st2" d="M149.2,32V5h4.9l12.3,18.5V5h4.4V32h-5l-12.2-18.5V32H149.2z"/>
		<path id="XMLID_990_" class="st2" d="M182.3,32V5h16.6v3.7h-11.1v7.6h9.1v3.6h-9.1v8.3h11.9V32H182.3z"/>
		<path id="XMLID_987_" class="st2" d="M209.1,32V5h9.9c5.4,0,8.1,2.2,8.1,6.7c0,1.7-0.5,3.2-1.4,4.6c-0.9,1.4-2.2,2.4-3.8,3.2
			l8.7,12.6h-6.7L217.3,21h-3V32H209.1z M214.3,17.3h1.3c4,0,6-1.7,6-5c0-2.4-1.8-3.6-5.4-3.6h-1.9V17.3z"/>
		<path id="XMLID_985_" class="st2" d="M260.4,31.4c-3.3,0.9-6.2,1.3-8.6,1.3c-4.6,0-8.1-1.2-10.6-3.7c-2.5-2.5-3.7-6-3.7-10.6
			c0-4.6,1.2-8.1,3.7-10.5c2.5-2.5,6-3.7,10.5-3.7c2.9,0,5.8,0.3,8.6,1v4.4c-3.3-1.2-6-1.7-8.2-1.7c-2.8,0-5,0.9-6.5,2.7
			c-1.5,1.8-2.3,4.4-2.3,7.8c0,3.2,0.8,5.8,2.5,7.6c1.6,1.8,3.9,2.8,6.8,2.8c0.6,0,1.4-0.1,2.2-0.3v-8.9h5.5V31.4z"/>
		<path id="XMLID_983_" class="st2" d="M271.4,32V5h5.5V32H271.4z"/>
		<path id="XMLID_981_" class="st2" d="M288.3,32V5h16.6v3.7h-11.1v7.6h9.1v3.6h-9.1v8.3h11.9V32H288.3z"/>
		<path id="XMLID_979_" class="st2" d="M313.7,31.8v-4.6c2.9,1.2,5.3,1.8,7.3,1.8c1.4,0,2.5-0.3,3.4-1c0.8-0.6,1.2-1.5,1.2-2.6
			c0-0.9-0.3-1.6-0.8-2.2c-0.5-0.6-1.5-1.3-2.9-2.2l-1.8-1c-2.4-1.4-4.1-2.7-5-3.9c-1-1.3-1.5-2.7-1.5-4.4c0-2.2,0.8-4,2.4-5.4
			c1.6-1.4,3.7-2,6.4-2c2.1,0,4.5,0.3,7.2,0.9v4.3c-2.7-1-4.9-1.6-6.4-1.6c-1.2,0-2.2,0.3-2.9,0.8c-0.7,0.6-1.1,1.3-1.1,2.2
			c0,0.7,0.3,1.4,0.8,2c0.5,0.6,1.5,1.3,2.9,2.1l1.9,1.1c2.6,1.5,4.3,2.8,5.3,4c1,1.2,1.5,2.7,1.5,4.5c0,2.5-0.9,4.5-2.7,5.9
			c-1.8,1.4-4.4,2.1-7.6,2.1C319,32.7,316.5,32.4,313.7,31.8z"/>
	</g>
</g>
</svg>
