<svg width="26" height="29" viewBox="0 0 26 29" fill="none" xmlns="http://www.w3.org/2000/svg">
<path d="M3.49994 3.20015C3.49994 2.70015 3.49994 2.30016 3.49994 1.80016C3.49994 1.00016 4.09996 0.400146 4.89996 0.400146C7.99996 0.400146 11.1 0.400146 14.2 0.400146C14.6 0.400146 14.9999 0.600146 15.2999 0.900146C16.9999 2.70015 18.6999 4.50015 20.2999 6.40015C20.5999 6.70015 20.7 7.00015 20.7 7.40015C20.7 8.90015 20.7 10.3002 20.7 11.8002C20.7 11.9002 20.7 12.0002 20.7 12.1002C22.2 12.4002 23.3 13.1001 24.2 14.4001C24.8 15.3001 25.0999 16.3001 24.9999 17.4001C24.8999 19.7001 23.3 21.8002 20.7 22.3002C20.7 22.7002 20.7 23.1002 20.7 23.6002C20.8 25.1002 20.2 25.7002 18.7 25.6002C18.5 25.6002 18.2 25.6002 17.9 25.6002C17.9 26.0002 17.9 26.4002 17.9 26.8002C17.9 27.8002 17.3 28.4001 16.4 28.4001C11.7 28.4001 6.99993 28.4001 2.29993 28.4001C1.29993 28.4001 0.799927 27.8001 0.799927 26.9001C0.799927 19.5001 0.799927 12.2002 0.799927 4.80016C0.799927 3.90016 1.39993 3.30016 2.29993 3.30016C2.69993 3.20016 3.09994 3.20015 3.49994 3.20015ZM15.2999 20.8002C15.1999 20.8002 15.0999 20.8002 14.9999 20.8002C13.2999 20.8002 11.4999 20.8002 9.79993 20.8002C9.69993 20.8002 9.59994 20.8002 9.49994 20.8002C9.29994 20.8002 9.09991 20.6001 9.09991 20.4001C9.09991 20.1001 9.19994 20.0001 9.49994 19.9001C9.59994 19.9001 9.69993 19.9001 9.79993 19.9001C11.5999 19.9001 13.3999 19.9001 15.2999 19.9001C15.3999 19.9001 15.4999 19.9002 15.5999 19.8002C15.0999 19.0002 14.7999 18.1002 14.7999 17.1002C14.6999 17.1002 14.5999 17.1002 14.4999 17.1002C12.9999 17.1002 11.3999 17.1002 9.79993 17.1002C9.69993 17.1002 9.59994 17.1002 9.49994 17.1002C9.29994 17.0002 9.09991 16.9002 9.09991 16.7001C9.09991 16.4002 9.19994 16.3001 9.49994 16.2001C9.59994 16.2001 9.69993 16.2001 9.79993 16.2001C11.3999 16.2001 12.9999 16.2001 14.4999 16.2001C14.5999 16.2001 14.6999 16.2001 14.7999 16.2001C14.8999 15.7001 15.0999 15.2001 15.2999 14.7001C15.5999 14.2001 15.8999 13.8001 16.2999 13.4001C16.0999 13.4001 16 13.4001 15.9 13.4001C13.8 13.4001 11.8 13.4001 9.69995 13.4001C9.59995 13.4001 9.49996 13.4001 9.39996 13.4001C9.19996 13.3001 8.99994 13.2002 8.99994 13.0002C8.99994 12.7002 9.09996 12.6002 9.39996 12.5002C9.49996 12.5002 9.59995 12.5002 9.69995 12.5002C12.3 12.5002 14.8 12.5002 17.4 12.5002C17.5 12.5002 17.6 12.5002 17.7 12.5002C18.3 12.2002 19 12.1002 19.7 12.1002C19.7 10.5002 19.7 9.00015 19.7 7.50015C19.6 7.50015 19.5 7.50015 19.4 7.50015C18.2 7.50015 17 7.50015 15.9 7.50015C15.2 7.50015 14.5999 7.30016 14.2999 6.60016C14.1999 6.60016 14.0999 6.60016 13.9999 6.60016C12.1999 6.60016 10.5 6.60016 8.69995 6.60016C7.99995 6.60016 7.39993 6.10015 7.29993 5.40015C7.29993 5.20015 7.29993 5.00016 7.29993 4.80016C7.29993 3.80016 7.89993 3.30016 8.79993 3.30016C10.4999 3.30016 12.2 3.30016 13.9 3.30016C14 3.30016 14.1 3.30016 14.2 3.30016C14.2 2.70016 14.2 2.10015 14.2 1.50015C14.1 1.50015 14 1.50015 13.9 1.50015C11 1.50015 8.09995 1.50015 5.19995 1.50015C4.59995 1.50015 4.49994 1.60015 4.49994 2.20015C4.49994 9.50015 4.49994 16.8002 4.49994 24.0002C4.49994 24.6002 4.59995 24.7001 5.19995 24.7001C9.79995 24.7001 14.4999 24.7001 19.0999 24.7001C19.1999 24.7001 19.3 24.7001 19.4 24.7001C19.6 24.7001 19.7999 24.5002 19.7999 24.3002C19.7999 23.7002 19.7999 23.0001 19.7999 22.4001C19.1999 22.4001 18.5999 22.3002 17.9999 22.0002C17.4999 22.2002 16.9 22.5001 16.4 22.7001C16 22.9002 15.7 22.8002 15.4 22.5002C15.1 22.2002 15.1 21.9002 15.2 21.5002C15.2 21.2002 15.2999 21.0002 15.2999 20.8002ZM16.9999 25.5002C16.7999 25.5002 16.6999 25.5002 16.5999 25.5002C12.7999 25.5002 8.89991 25.5002 5.09991 25.5002C4.09991 25.5002 3.49994 25.0001 3.49994 23.9001C3.49994 17.4001 3.49994 11.0002 3.49994 4.50015C3.49994 4.40015 3.49994 4.30016 3.49994 4.10016C3.09994 4.10016 2.79996 4.10016 2.39996 4.10016C1.79996 4.10016 1.69995 4.20016 1.69995 4.80016C1.69995 12.1002 1.69995 19.4002 1.69995 26.7001C1.69995 27.3001 1.79996 27.4001 2.39996 27.4001C6.99996 27.4001 11.6999 27.4001 16.2999 27.4001C16.3999 27.4001 16.4999 27.4001 16.5999 27.4001C16.8999 27.4001 16.9999 27.2002 16.9999 27.0002C16.9999 26.4002 16.9999 26.0002 16.9999 25.5002ZM15.9999 21.7001C16.5999 21.5001 17.0999 21.2002 17.5999 21.0002C17.8999 20.9002 18.1 20.9002 18.4 21.0002C19.1 21.3002 19.8999 21.4002 20.5999 21.2001C22.6999 20.9002 24.1999 19.0001 24.0999 16.9001C23.9999 14.8001 22.3 13.0001 20.2 12.9001C18.5 12.8001 17.1 13.5002 16.2 15.0002C15.3 16.5002 15.4 18.0002 16.4 19.5002C16.6 19.8002 16.5999 20.0002 16.4999 20.3002C16.3999 20.7002 16.1999 21.2001 15.9999 21.7001ZM19.2 6.40015C17.8 4.90015 16.5 3.50016 15.2 2.10016V2.20015C15.2 3.50015 15.2 4.70015 15.2 6.00015C15.2 6.30015 15.4 6.50015 15.7 6.50015C16 6.50015 16.1999 6.50015 16.4999 6.50015C17.3999 6.40015 18.3 6.40015 19.2 6.40015ZM14.2 4.10016C12.3 4.10016 10.4999 4.10016 8.59991 4.10016C8.29991 4.10016 8.19991 4.30016 8.09991 4.60016C8.09991 4.70016 8.09991 4.80015 8.09991 4.90015C8.09991 5.40015 8.19995 5.50015 8.69995 5.50015C10.4 5.50015 12.0999 5.50015 13.7999 5.50015C13.8999 5.50015 13.9999 5.50015 14.0999 5.50015C14.1999 5.00015 14.2 4.60016 14.2 4.10016Z" fill="#878787"/>
<path d="M13.9999 8.70009C15.3999 8.70009 16.8 8.70009 18.2 8.70009C18.3 8.70009 18.3999 8.70009 18.4999 8.70009C18.7999 8.70009 18.9 8.9001 18.9 9.1001C18.9 9.3001 18.6999 9.5001 18.4999 9.6001C18.3999 9.6001 18.3 9.6001 18.2 9.6001C15.4 9.6001 12.5999 9.6001 9.79993 9.6001C9.69993 9.6001 9.59991 9.6001 9.59991 9.6001C9.29991 9.6001 9.19995 9.4001 9.19995 9.1001C9.19995 8.8001 9.39995 8.6001 9.69995 8.6001C9.79995 8.6001 9.99991 8.6001 10.0999 8.6001C11.3999 8.7001 12.6999 8.70009 13.9999 8.70009Z" fill="#878787"/>
<path d="M6.79987 7.80021C7.89987 7.70021 8.19989 8.1002 8.19989 9.2002C8.19989 10.2002 7.79987 10.7002 6.79987 10.6002C6.59987 10.6002 6.49987 10.6002 6.29987 10.6002C5.79987 10.6002 5.3999 10.2002 5.3999 9.7002C5.3999 9.4002 5.3999 9.10021 5.3999 8.80021C5.3999 8.20021 5.7999 7.90021 6.3999 7.80021C6.4999 7.80021 6.59987 7.80021 6.79987 7.80021ZM7.19989 9.7002C7.19989 9.4002 7.19989 9.10021 7.19989 8.80021C6.89989 8.80021 6.59987 8.80021 6.29987 8.80021C6.29987 9.10021 6.29987 9.4002 6.29987 9.7002C6.69987 9.7002 6.89989 9.7002 7.19989 9.7002Z" fill="#878787"/>
<path d="M8.19989 12.9002C8.29989 13.9002 7.89987 14.3002 6.79987 14.3002C5.69987 14.3002 5.3999 13.9002 5.3999 12.9002C5.3999 11.9002 5.69987 11.5002 6.79987 11.5002C7.79987 11.5002 8.29989 11.8002 8.19989 12.9002ZM7.19989 13.4002C7.19989 13.1002 7.19989 12.8002 7.19989 12.5002C6.89989 12.5002 6.59987 12.5002 6.29987 12.5002C6.29987 12.8002 6.29987 13.1002 6.29987 13.4002C6.69987 13.4002 6.89989 13.4002 7.19989 13.4002Z" fill="#878787"/>
<path d="M6.79987 15.2001C7.79987 15.1001 8.19989 15.5001 8.19989 16.6001C8.19989 17.6001 7.79987 18.1001 6.79987 18.0001C6.59987 18.0001 6.49987 18.0001 6.29987 18.0001C5.79987 18.0001 5.3999 17.6001 5.3999 17.1001C5.3999 16.8001 5.3999 16.5001 5.3999 16.2001C5.3999 15.6001 5.7999 15.3001 6.3999 15.2001C6.4999 15.2001 6.59987 15.2001 6.79987 15.2001ZM7.29987 16.2001C6.99987 16.2001 6.6999 16.2001 6.3999 16.2001C6.3999 16.5001 6.3999 16.8001 6.3999 17.1001C6.6999 17.1001 6.99987 17.1001 7.29987 17.1001C7.29987 16.8001 7.29987 16.5001 7.29987 16.2001Z" fill="#878787"/>
<path d="M6.79987 19.0001C7.79987 18.9001 8.29989 19.4001 8.19989 20.4001C8.19989 20.6001 8.19989 20.7001 8.19989 20.9001C8.19989 21.4001 7.79987 21.8001 7.29987 21.8001C6.99987 21.8001 6.59987 21.8001 6.29987 21.8001C5.79987 21.8001 5.3999 21.4001 5.3999 20.9001C5.3999 20.6001 5.3999 20.3001 5.3999 20.0001C5.3999 19.4001 5.7999 19.0001 6.3999 19.0001C6.4999 19.0001 6.69987 19.0001 6.79987 19.0001ZM7.19989 20.8001C7.19989 20.5001 7.19989 20.2001 7.19989 19.9001C6.89989 19.9001 6.59987 19.9001 6.29987 19.9001C6.29987 20.2001 6.29987 20.5001 6.29987 20.8001C6.69987 20.8001 6.89989 20.8001 7.19989 20.8001Z" fill="#878787"/>
<path d="M19.5999 18.0001C19.3999 17.4001 19.4999 16.8001 19.9999 16.4001C20.1999 16.2001 20.3999 16.1001 20.4999 15.9001C20.8999 15.5001 20.6999 15.0001 20.0999 14.9001C19.6999 14.8001 19.3999 14.9001 19.1999 15.3001C19.0999 15.5001 18.8999 15.6001 18.5999 15.5001C18.3999 15.4001 18.3 15.2001 18.4 14.9001C18.5 14.5001 18.7999 14.2001 19.1999 14.1001C19.7999 13.9001 20.2999 13.9001 20.7999 14.2001C21.5999 14.6001 21.7999 15.5001 21.2999 16.2001C21.0999 16.5001 20.8999 16.7001 20.5999 16.9001C20.3999 17.1001 20.1999 17.3001 20.1999 17.6001C20.3999 18.1001 20.0999 18.3001 19.5999 18.0001Z" fill="#878787"/>
<path d="M20.4999 19.3002C20.4999 19.6002 20.2 19.9002 19.9 19.9002C19.6 19.9002 19.2999 19.6002 19.2999 19.3002C19.2999 19.0002 19.6 18.7002 19.9 18.7002C20.2 18.7002 20.4999 19.0002 20.4999 19.3002Z" fill="#878787"/>
</svg>
