<svg width="25" height="25" viewBox="0 0 25 25" fill="none" xmlns="http://www.w3.org/2000/svg">
<path d="M19.9 2.60005C19.6 1.20005 18.5 0.300049 17 0.300049H3.39999C2.09999 0.300049 1.00001 1.10005 0.600006 2.30005C0.600006 2.40005 0.5 2.60004 0.5 2.70004V2.90004V18.6001C0.6 18.9001 0.8 19.0001 1 19.1001C1.2 19.1001 1.40001 19.1 1.70001 18.8L5.89999 15.3H17C18.7 15.3 20 14 20 12.3V3.40004C19.9 3.00004 19.9 2.80005 19.9 2.60005ZM18.7 12.1001C18.7 13.3001 18 13.9 16.8 13.9H14.6C11.7 13.9 8.69999 13.9 5.79999 13.9C5.49999 13.9 5.3 14 5 14.2C4.2 14.9 3.40001 15.5 2.60001 16.2L2 16.7C2 16.7 1.89999 16.8 1.79999 16.8H1.70001L1.60001 16.7C1.50001 16.6 1.50001 16.5 1.60001 16.4V3.20004C1.60001 2.10004 2.29999 1.40004 3.39999 1.40004H16.7C17.9 1.40004 18.5 2.10004 18.5 3.20004V12.1001H18.7Z" fill="#878787"/>
<path d="M24.5 23.5002C24.5 23.9002 24.4 24.2001 24 24.4001H23.7C23.5 24.3001 23.4 24.2002 23.2 24.1002C22.5 23.5002 21.7 22.9002 21 22.3002L19.8 21.3002H9.5C8.1 21.3002 6.90001 20.4002 6.60001 19.0002C6.50001 18.5002 6.5 18.0002 6.5 17.5002C6.5 17.2002 6.80001 17.0002 7.10001 17.0002C7.40001 17.0002 7.70001 17.2002 7.70001 17.5002C7.70001 17.7002 7.70001 17.8002 7.70001 18.0002V18.2001C7.70001 19.3001 8.4 20.0002 9.5 20.0002H10.2C13.4 20.0002 16.5 20.0002 19.7 20.0002C20 20.0002 20.3 20.1002 20.5 20.3002C21 20.7002 21.6 21.2002 22.1 21.6002L22.7 22.1002C22.7 22.1002 22.8 22.2001 22.9 22.2001H23V22.1002C23.1 22.0002 23 21.9002 23 21.8002C23 17.7002 23 13.5001 23 9.40015C23 8.30015 22.4 7.70016 21.3 7.60016C20.9 7.60016 20.7 7.30015 20.7 7.00015C20.7 6.70015 21 6.40015 21.3 6.40015C22.8 6.40015 24.1 7.60016 24.1 9.10016C24.1 9.20016 24.1 9.30015 24.1 9.50015V13.1002C24.5 16.6002 24.5 20.0002 24.5 23.5002Z" fill="#878787"/>
<path d="M15.3 5.70015C15.2 5.90015 15 6.10016 14.8 6.10016H5.79999C5.69999 6.10016 5.6 6.10016 5.5 6.10016C5.2 6.00016 5 5.80015 5 5.40015C5 5.10015 5.30001 4.90015 5.60001 4.90015C6.30001 4.90015 6.90001 4.90015 7.60001 4.90015H11.4C12.5 4.90015 13.6 4.90015 14.7 4.90015C14.9 4.90015 15.1 5.00015 15.3 5.20015C15.4 5.30015 15.4 5.50015 15.3 5.70015Z" fill="#878787"/>
<path d="M12.3 8.70004C12.2 9.00004 12 9.10005 11.7 9.10005H5.7C5.5 9.10005 5.3 9.00005 5.2 8.80005C5.1 8.60005 5.1 8.40004 5.2 8.20004C5.3 7.90004 5.49998 7.80005 5.79998 7.80005H9.29998H10.3C10.8 7.80005 11.3 7.80005 11.8 7.80005C12 7.80005 12.2 7.90005 12.4 8.10005C12.4 8.40005 12.4 8.60004 12.3 8.70004Z" fill="#878787"/>
</svg>
