<svg width="31" height="31" viewBox="0 0 31 31" fill="none" xmlns="http://www.w3.org/2000/svg">
<path d="M8.7001 10.4999C9.0001 10.5999 9.2001 10.6999 9.5001 10.7999C9.8001 10.5999 10.1001 10.2999 10.5001 10.0999C10.9001 9.79995 11.1001 9.79995 11.4001 10.2C11.8001 10.6 12.2001 10.9999 12.6001 11.3999C12.9001 11.6999 12.9001 11.9 12.7001 12.2C12.5001 12.5 12.2001 12.9 12.0001 13.2C12.1001 13.5 12.2001 13.6999 12.3001 13.9999C12.7001 14.0999 13.1001 14.1 13.5001 14.2C13.9001 14.3 14.0001 14.3999 14.0001 14.7999C14.0001 15.3999 14.0001 15.9999 14.0001 16.5999C14.0001 16.9999 13.9001 17.1 13.5001 17.2C13.1001 17.3 12.7001 17.2999 12.3001 17.3999C12.2001 17.6999 12.1001 17.9 12.0001 18.2C12.2001 18.5 12.5001 18.8 12.7001 19.2C13.0001 19.6 13.0001 19.7999 12.6001 20.0999C12.2001 20.4999 11.8001 20.8999 11.4001 21.2999C11.1001 21.5999 10.9001 21.5999 10.6001 21.3999C10.3001 21.1999 9.9001 20.9 9.6001 20.7C9.3001 20.8 9.1001 20.8999 8.8001 20.9999C8.7001 21.3999 8.7001 21.8 8.6001 22.2C8.5001 22.6 8.4001 22.7 8.0001 22.7C7.4001 22.7 6.8001 22.7 6.2001 22.7C5.8001 22.7 5.7001 22.6 5.6001 22.2C5.5001 21.8 5.5001 21.3999 5.4001 20.9999C5.1001 20.8999 4.9001 20.8 4.6001 20.7C4.3001 20.9 3.9001 21.1999 3.6001 21.3999C3.3001 21.5999 3.1001 21.5999 2.8001 21.2999C2.4001 20.8999 2.0001 20.4999 1.5001 19.9999C1.2001 19.6999 1.2001 19.5 1.4001 19.2C1.6001 18.9 1.9001 18.5 2.1001 18.2C2.0001 17.9 1.9001 17.6999 1.8001 17.3999C1.4001 17.2999 1.0001 17.3 0.600098 17.2C0.200098 17.1 0.100098 16.9999 0.100098 16.5999C0.100098 15.9999 0.100098 15.3999 0.100098 14.7999C0.100098 14.3999 0.300098 14.3 0.600098 14.2C1.0001 14.1 1.4001 14.0999 1.8001 13.9999C1.9001 13.6999 2.0001 13.5 2.1001 13.2C1.9001 12.9 1.6001 12.5 1.4001 12.2C1.2001 11.9 1.2001 11.6999 1.5001 11.3999C1.9001 10.9999 2.3001 10.5999 2.8001 10.0999C3.1001 9.79995 3.3001 9.79994 3.6001 9.99994C3.9001 10.1999 4.3001 10.5 4.6001 10.7C4.9001 10.6 5.1001 10.4999 5.4001 10.3999C5.5001 9.99993 5.5001 9.59995 5.6001 9.19995C5.7001 8.79995 5.8001 8.69995 6.2001 8.69995C6.8001 8.69995 7.4001 8.69995 8.0001 8.69995C8.4001 8.69995 8.5001 8.79995 8.6001 9.19995C8.6001 9.69995 8.6001 10.0999 8.7001 10.4999ZM13.0001 15.2C12.6001 15.1 12.2001 15.0999 11.9001 14.9999C11.6001 14.9999 11.4001 14.7999 11.4001 14.4999C11.3001 14.0999 11.2001 13.7999 11.0001 13.4999C10.8001 13.1999 10.9001 13 11.1001 12.7C11.3001 12.4 11.5001 12.0999 11.8001 11.7999C11.5001 11.4999 11.3001 11.2999 11.0001 10.9999C10.7001 11.1999 10.4001 11.4 10.1001 11.7C9.9001 11.9 9.6001 11.9 9.4001 11.7C9.1001 11.5 8.7001 11.3999 8.4001 11.2999C8.1001 11.1999 8.0001 11.0999 7.9001 10.7999C7.9001 10.3999 7.8001 9.99995 7.7001 9.69995C7.3001 9.69995 6.9001 9.69995 6.6001 9.69995C6.5001 10.1 6.5001 10.4999 6.4001 10.7999C6.4001 11.0999 6.2001 11.2999 5.9001 11.2999C5.5001 11.3999 5.2001 11.5 4.9001 11.7C4.6001 11.9 4.4001 11.7999 4.1001 11.5999C3.8001 11.3999 3.5001 11.1999 3.2001 10.8999C2.9001 11.1999 2.6001 11.4 2.4001 11.7C2.6001 12 2.9001 12.2999 3.1001 12.5999C3.3001 12.7999 3.3001 13.0999 3.1001 13.2999C2.9001 13.5999 2.8001 13.9999 2.7001 14.2999C2.6001 14.5999 2.5001 14.6999 2.2001 14.7999C1.8001 14.7999 1.4001 14.8999 1.1001 14.9999C1.1001 15.3999 1.1001 15.7999 1.1001 16.0999C1.5001 16.1999 1.9001 16.1999 2.2001 16.2999C2.5001 16.2999 2.7001 16.4999 2.7001 16.7999C2.8001 17.1999 2.9001 17.4999 3.1001 17.7999C3.3001 18.0999 3.2001 18.2999 3.0001 18.5999C2.8001 18.8999 2.6001 19.1999 2.3001 19.4999C2.6001 19.7999 2.8001 19.9999 3.1001 20.2999C3.4001 20.0999 3.7001 19.8999 4.0001 19.5999C4.2001 19.3999 4.5001 19.3999 4.7001 19.5999C5.0001 19.7999 5.4001 19.8999 5.7001 19.9999C6.0001 20.0999 6.1001 20.1999 6.1001 20.4999C6.1001 20.8999 6.2001 21.2999 6.3001 21.5999C6.7001 21.5999 7.1001 21.5999 7.4001 21.5999C7.5001 21.1999 7.5001 20.7999 7.6001 20.4999C7.6001 20.1999 7.8001 19.9999 8.1001 19.9999C8.5001 19.8999 8.8001 19.7999 9.1001 19.5999C9.4001 19.3999 9.6001 19.5 9.9001 19.7C10.2001 19.9 10.5001 20.1999 10.8001 20.3999C11.1001 20.0999 11.3001 19.8999 11.6001 19.5999C11.4001 19.2999 11.2001 19 10.9001 18.7C10.7001 18.5 10.7001 18.1999 10.9001 17.9999C11.1001 17.6999 11.2001 17.2999 11.3001 16.9999C11.4001 16.6999 11.5001 16.5999 11.8001 16.4999C12.2001 16.4999 12.6001 16.3999 12.9001 16.2999C13.0001 15.8999 13.0001 15.6 13.0001 15.2Z" fill="#878787"/>
<path d="M22.1002 2.69995C22.1002 2.39995 22.1002 1.99995 22.1002 1.69995C22.1002 1.09995 22.5002 0.699951 23.1002 0.699951C24.7002 0.699951 26.4002 0.699951 28.0002 0.699951C28.6002 0.699951 29.0002 1.09993 29.1002 1.79993C29.1002 2.69993 29.1002 3.49993 29.1002 4.39993C29.1002 4.49993 29.1002 4.59995 29.1002 4.69995C29.3002 4.69995 29.4002 4.69995 29.6002 4.69995C29.9002 4.69995 30.1002 4.89995 30.1002 5.19995C30.1002 6.19995 30.1002 7.29993 30.1002 8.29993C30.1002 9.09993 29.4002 9.69995 28.7002 9.69995C26.7002 9.69995 24.6002 9.69995 22.6002 9.69995C21.8002 9.69995 21.2002 8.99995 21.2002 8.19995C21.2002 6.49995 21.2002 4.89995 21.2002 3.19995C21.2002 2.79995 21.4002 2.69995 21.7002 2.59995C21.7002 2.69995 21.9002 2.69995 22.1002 2.69995ZM22.1002 3.69995C22.1002 5.19995 22.1002 6.69995 22.1002 8.19995C22.1002 8.49995 22.3002 8.69995 22.7002 8.69995C24.6002 8.69995 26.6002 8.69995 28.5002 8.69995C28.9002 8.69995 29.1002 8.49995 29.1002 8.09995C29.1002 7.49995 29.1002 6.89993 29.1002 6.29993C29.1002 6.09993 29.1002 5.89995 29.1002 5.69995C28.5002 5.69995 27.9002 5.69995 27.4002 5.69995C27.1002 5.69995 26.8002 5.59993 26.6002 5.39993C26.1002 4.79993 25.5002 4.29995 24.9002 3.69995C23.9002 3.69995 23.0002 3.69995 22.1002 3.69995ZM28.1002 4.69995C28.1002 3.69995 28.1002 2.69995 28.1002 1.69995C26.4002 1.69995 24.8002 1.69995 23.1002 1.69995C23.1002 1.99995 23.1002 2.39995 23.1002 2.69995C23.7002 2.69995 24.3002 2.69995 24.9002 2.69995C25.2002 2.69995 25.4002 2.79994 25.6002 2.99994C26.2002 3.59994 26.7002 4.19995 27.3002 4.69995C27.5002 4.69995 27.8002 4.69995 28.1002 4.69995Z" fill="#878787"/>
<path d="M22.1001 13.2C22.1001 12.8 22.1001 12.5 22.1001 12.2C22.1001 11.6 22.5001 11.2 23.1001 11.2C24.8001 11.2 26.4001 11.2 28.1001 11.2C28.7001 11.2 29.1001 11.5999 29.1001 12.2999C29.1001 13.2999 29.1001 14.2 29.1001 15.2C29.3001 15.3 29.4001 15.2 29.6001 15.2C29.9001 15.2 30.1001 15.4 30.1001 15.7C30.1001 16.7 30.1001 17.6999 30.1001 18.7999C30.1001 19.5999 29.4001 20.2 28.7001 20.2C26.6001 20.2 24.6001 20.2 22.5001 20.2C21.7001 20.2 21.1001 19.5 21.1001 18.7C21.1001 17 21.1001 15.4 21.1001 13.7C21.1001 13.3 21.3001 13.0999 21.7001 13.0999C21.8001 13.1999 21.9001 13.2 22.1001 13.2ZM22.1001 14.2C22.1001 15.7 22.1001 17.2 22.1001 18.7C22.1001 19 22.3001 19.2 22.7001 19.2C24.7001 19.2 26.6001 19.2 28.6001 19.2C29.0001 19.2 29.2001 18.9999 29.2001 18.5999C29.2001 18.1999 29.2001 17.6999 29.2001 17.2999C29.2001 16.8999 29.2001 16.6 29.2001 16.2C28.6001 16.2 28.0001 16.2 27.4001 16.2C27.1001 16.2 26.9001 16.0999 26.7001 15.8999C26.1001 15.2999 25.6001 14.7 25.0001 14.2C23.9001 14.2 23.0001 14.2 22.1001 14.2ZM23.1001 13.2C23.7001 13.2 24.3001 13.2 24.9001 13.2C25.2001 13.2 25.4001 13.2999 25.6001 13.4999C26.2001 14.0999 26.7001 14.6 27.3001 15.2C27.6001 15.2 27.8001 15.2 28.1001 15.2C28.1001 14.2 28.1001 13.2 28.1001 12.2C26.4001 12.2 24.8001 12.2 23.1001 12.2C23.1001 12.6 23.1001 12.9 23.1001 13.2Z" fill="#878787"/>
<path d="M22.1002 23.2999C22.1002 22.9999 22.1002 22.6999 22.1002 22.3999C22.1002 21.7999 22.5002 21.2999 23.2002 21.2999C24.8002 21.2999 26.5002 21.2999 28.1002 21.2999C28.7002 21.2999 29.1002 21.6999 29.1002 22.2999C29.1002 23.1999 29.1002 24.0999 29.1002 24.8999C29.1002 24.9999 29.1002 25.1 29.1002 25.2C29.3002 25.2 29.4002 25.2 29.6002 25.2C29.9002 25.2 30.1002 25.4 30.1002 25.7C30.1002 26.7 30.1002 27.6999 30.1002 28.7999C30.1002 29.5999 29.4002 30.2 28.7002 30.2C26.7002 30.2 24.6002 30.2 22.6002 30.2C21.8002 30.2 21.2002 29.5 21.2002 28.7C21.2002 27 21.2002 25.4 21.2002 23.7C21.2002 23.3 21.4002 23.0999 21.8002 23.0999C21.8002 23.2999 21.9002 23.2999 22.1002 23.2999ZM24.9002 24.2999C23.9002 24.2999 23.0002 24.2999 22.1002 24.2999C22.1002 25.7999 22.1002 27.2999 22.1002 28.7999C22.1002 29.0999 22.3002 29.2999 22.7002 29.2999C24.6002 29.2999 26.6002 29.2999 28.5002 29.2999C28.9002 29.2999 29.1002 29.1 29.1002 28.7C29.1002 28.2 29.1002 27.5999 29.1002 27.0999C29.1002 26.7999 29.1002 26.5999 29.1002 26.2999C28.5002 26.2999 27.9002 26.2999 27.3002 26.2999C27.0002 26.2999 26.8002 26.1999 26.6002 25.9999C26.0002 25.3999 25.4002 24.7999 24.9002 24.2999ZM23.1002 23.2999C23.7002 23.2999 24.3002 23.2999 24.9002 23.2999C25.2002 23.2999 25.4002 23.3999 25.5002 23.5999C26.1002 24.1999 26.7002 24.7999 27.2002 25.2999C27.5002 25.2999 27.7002 25.2999 28.0002 25.2999C28.0002 24.2999 28.0002 23.2999 28.0002 22.2999C26.3002 22.2999 24.7002 22.2999 23.0002 22.2999C23.1002 22.5999 23.1002 22.8999 23.1002 23.2999Z" fill="#878787"/>
<path d="M15 16.2C15 15.8 15 15.5 15 15.2C15.5 15.2 16 15.2 16.4 15.2C16.5 15.1 16.5 14.8999 16.5 14.7999C16.5 11.9999 16.5 9.19993 16.5 6.39993C16.5 5.79993 16.6 5.69995 17.2 5.69995C18.1 5.69995 19 5.69995 20 5.69995C20 5.99995 20 6.29995 20 6.69995C19.2 6.69995 18.4 6.69995 17.5 6.69995C17.5 9.59995 17.5 12.4 17.5 15.2C18.3 15.2 19.1 15.2 20 15.2C20 15.5 20 15.9 20 16.2C19.2 16.2 18.4 16.2 17.5 16.2C17.5 19.6 17.5 22.9 17.5 26.2C18.3 26.2 19.1 26.2 20 26.2C20 26.5 20 26.9 20 27.2C19.9 27.3 19.9 27.2 19.8 27.2C18.9 27.2 18 27.2 17.2 27.2C16.7 27.2 16.6 26.9999 16.6 26.4999C16.6 23.1999 16.6 19.7999 16.6 16.4999C16.6 16.3999 16.6 16.2999 16.6 16.0999C16 16.1999 15.6 16.2 15 16.2Z" fill="#878787"/>
<path d="M7 18.7C5.3 18.7 4 17.3 4 15.7C4 14 5.4 12.7 7 12.7C8.7 12.7 10 14.1 10 15.7C10 17.4 8.6 18.7 7 18.7ZM7 17.7C8.1 17.7 9 16.8 9 15.7C9 14.6 8.1 13.7 7 13.7C5.9 13.7 5 14.6 5 15.7C5 16.8 5.9 17.7 7 17.7Z" fill="#878787"/>
</svg>
