<svg width="31" height="30" viewBox="0 0 31 30" fill="none" xmlns="http://www.w3.org/2000/svg">
<path d="M8.6 10.1008C8.9 10.2008 9.1 10.3008 9.4 10.4008C9.7 10.2008 10 9.90078 10.4 9.70078C10.8 9.40078 11 9.40078 11.3 9.80078C11.7 10.2008 12.1 10.6008 12.5 11.0008C12.8 11.3008 12.8 11.5008 12.6 11.8008C12.4 12.1008 12.1 12.5008 11.9 12.8008C12 13.1008 12.1 13.3008 12.2 13.6008C12.6 13.7008 13 13.7008 13.4 13.8008C13.8 13.9008 13.9 14.0008 13.9 14.4008C13.9 15.0008 13.9 15.6008 13.9 16.2008C13.9 16.6008 13.8 16.7008 13.4 16.8008C13 16.9008 12.6 16.9008 12.2 17.0008C12.1 17.3008 12 17.5008 11.9 17.8008C12.1 18.1008 12.4 18.4008 12.6 18.8008C12.9 19.2008 12.9 19.4008 12.5 19.7008C12.1 20.1008 11.7 20.5008 11.3 20.9008C11 21.2008 10.8 21.2008 10.5 21.0008C10.2 20.8008 9.8 20.5008 9.5 20.3008C9.2 20.4008 9 20.5008 8.7 20.6008C8.6 21.0008 8.6 21.4008 8.5 21.8008C8.4 22.2008 8.3 22.3008 7.9 22.3008C7.3 22.3008 6.7 22.3008 6.1 22.3008C5.7 22.3008 5.6 22.2008 5.5 21.8008C5.4 21.4008 5.4 21.0008 5.3 20.6008C5 20.5008 4.8 20.4008 4.5 20.3008C4.2 20.5008 3.8 20.8008 3.5 21.0008C3.2 21.2008 3 21.2008 2.7 20.9008C2.3 20.5008 1.9 20.1008 1.4 19.6008C1.1 19.3008 1.1 19.1008 1.3 18.8008C1.5 18.5008 1.8 18.1008 2 17.8008C1.9 17.5008 1.8 17.3008 1.7 17.0008C1.3 16.9008 0.9 16.9008 0.5 16.8008C0.1 16.7008 0 16.6008 0 16.2008C0 15.6008 0 15.0008 0 14.4008C0 14.0008 0.2 13.9008 0.5 13.8008C0.9 13.7008 1.3 13.7008 1.7 13.6008C1.8 13.3008 1.9 13.1008 2 12.8008C1.8 12.5008 1.5 12.1008 1.3 11.8008C1.1 11.5008 1.1 11.3008 1.4 11.0008C1.8 10.6008 2.2 10.2008 2.7 9.70078C3 9.40078 3.2 9.40077 3.5 9.60077C3.8 9.80077 4.2 10.1008 4.5 10.3008C4.8 10.2008 5 10.1008 5.3 10.0008C5.4 9.60076 5.4 9.20078 5.5 8.80078C5.6 8.40078 5.7 8.30078 6.1 8.30078C6.7 8.30078 7.3 8.30078 7.9 8.30078C8.3 8.30078 8.4 8.40078 8.5 8.80078C8.5 9.30078 8.6 9.70077 8.6 10.1008ZM12.9 14.8008C12.5 14.7008 12.1 14.7008 11.8 14.6008C11.5 14.6008 11.3 14.4008 11.3 14.1008C11.2 13.7008 11.1 13.4008 10.9 13.1008C10.7 12.8008 10.8 12.6008 11 12.3008C11.2 12.0008 11.4 11.7008 11.7 11.4008C11.4 11.1008 11.2 10.9008 10.9 10.6008C10.6 10.8008 10.3 11.0008 10 11.3008C9.8 11.5008 9.5 11.5008 9.3 11.3008C9 11.1008 8.6 11.0008 8.3 10.9008C8 10.8008 7.9 10.7008 7.8 10.4008C7.8 10.0008 7.7 9.60078 7.6 9.30078C7.2 9.30078 6.8 9.30078 6.5 9.30078C6.4 9.70078 6.4 10.1008 6.3 10.4008C6.3 10.7008 6.1 10.9008 5.8 10.9008C5.4 11.0008 5.1 11.1008 4.8 11.3008C4.5 11.5008 4.3 11.4008 4 11.2008C3.7 11.0008 3.4 10.8008 3.1 10.5008C2.8 10.8008 2.5 11.0008 2.3 11.3008C2.5 11.6008 2.8 11.9008 3 12.2008C3.2 12.4008 3.2 12.7008 3 12.9008C2.8 13.2008 2.7 13.6008 2.6 13.9008C2.5 14.2008 2.4 14.3008 2.1 14.4008C1.7 14.4008 1.3 14.5008 1 14.6008C1 15.0008 1 15.4008 1 15.7008C1.4 15.8008 1.8 15.8008 2.1 15.9008C2.4 15.9008 2.6 16.1008 2.6 16.4008C2.7 16.8008 2.8 17.1008 3 17.4008C3.2 17.7008 3.1 17.9008 2.9 18.2008C2.7 18.5008 2.5 18.8008 2.2 19.1008C2.5 19.4008 2.7 19.6008 3 19.9008C3.3 19.7008 3.6 19.5008 3.9 19.2008C4.1 19.0008 4.4 19.0008 4.6 19.2008C4.9 19.4008 5.3 19.5008 5.6 19.6008C5.9 19.7008 6 19.8008 6 20.1008C6 20.5008 6.1 20.9008 6.2 21.2008C6.6 21.2008 7 21.2008 7.3 21.2008C7.4 20.8008 7.4 20.4008 7.5 20.1008C7.5 19.8008 7.7 19.6008 8 19.6008C8.4 19.5008 8.7 19.4008 9 19.2008C9.3 19.0008 9.5 19.1008 9.8 19.3008C10.1 19.5008 10.4 19.8008 10.7 20.0008C11 19.7008 11.2 19.5008 11.5 19.2008C11.3 18.9008 11.1 18.6008 10.8 18.3008C10.6 18.1008 10.6 17.8008 10.8 17.6008C11 17.3008 11.1 16.9008 11.2 16.6008C11.3 16.3008 11.4 16.2008 11.7 16.1008C12.1 16.1008 12.5 16.0008 12.8 15.9008C12.9 15.5008 12.9 15.2008 12.9 14.8008Z" fill="white"/>
<path d="M7 18.3008C5.3 18.3008 4 16.9008 4 15.3008C4 13.6008 5.4 12.3008 7 12.3008C8.7 12.3008 10 13.7008 10 15.3008C10 17.0008 8.7 18.3008 7 18.3008ZM7 17.3008C8.1 17.3008 9 16.4008 9 15.3008C9 14.2008 8.1 13.3008 7 13.3008C5.9 13.3008 5 14.2008 5 15.3008C5 16.4008 5.9 17.3008 7 17.3008Z" fill="white"/>
<path d="M22.9996 2C22.9996 1.7 22.9996 1.3 22.9996 1C22.9996 0.4 23.3996 0 23.9996 0C25.5996 0 27.2996 0 28.8996 0C29.4996 0 29.9996 0.399976 29.9996 1.09998C29.9996 1.99998 29.9996 2.79998 29.9996 3.69998C29.9996 3.79998 29.9996 3.9 29.9996 4C30.1996 4 30.2996 4 30.4996 4C30.7996 4 30.9996 4.2 30.9996 4.5C30.9996 5.5 30.9996 6.59998 30.9996 7.59998C30.9996 8.39998 30.2996 9 29.5996 9C27.5996 9 25.4996 9 23.4996 9C22.6996 9 22.0996 8.3 22.0996 7.5C22.0996 5.8 22.0996 4.2 22.0996 2.5C22.0996 2.1 22.2996 1.99999 22.5996 1.89999C22.6996 1.99999 22.7996 2 22.9996 2ZM22.9996 3C22.9996 4.5 22.9996 6 22.9996 7.5C22.9996 7.8 23.1996 8 23.5996 8C25.4996 8 27.4996 8 29.3996 8C29.7996 8 29.9996 7.79999 29.9996 7.39999C29.9996 6.79999 29.9996 6.19998 29.9996 5.59998C29.9996 5.39998 29.9996 5.2 29.9996 5C29.3996 5 28.7996 5 28.2996 5C27.9996 5 27.6996 4.89998 27.4996 4.69998C26.9996 4.09998 26.3996 3.6 25.7996 3C24.8996 3 23.8996 3 22.9996 3ZM28.9996 4C28.9996 3 28.9996 2 28.9996 1C27.2996 1 25.6996 1 23.9996 1C23.9996 1.3 23.9996 1.7 23.9996 2C24.5996 2 25.1996 2 25.7996 2C26.0996 2 26.2996 2.09999 26.4996 2.29999C27.0996 2.89999 27.5996 3.5 28.1996 4C28.4996 4 28.6996 4 28.9996 4Z" fill="white"/>
<path d="M23 12.5C23 12.1 23 11.8 23 11.5C23 10.9 23.4 10.5 24 10.5C25.7 10.5 27.3 10.5 29 10.5C29.6 10.5 30 10.9 30 11.6C30 12.6 30 13.5 30 14.5C30.2 14.6 30.3 14.5 30.5 14.5C30.8 14.5 31 14.7 31 15C31 16 31 17 31 18.1C31 18.9 30.3 19.5 29.6 19.5C27.5 19.5 25.5 19.5 23.4 19.5C22.6 19.5 22 18.8 22 18C22 16.3 22 14.7 22 13C22 12.6 22.2 12.4 22.6 12.4C22.7 12.5 22.8 12.5 23 12.5ZM23 13.5C23 15 23 16.5 23 18C23 18.3 23.2 18.5 23.6 18.5C25.6 18.5 27.5 18.5 29.5 18.5C29.9 18.5 30.1 18.3 30.1 17.9C30.1 17.5 30.1 17 30.1 16.6C30.1 16.2 30.1 15.9 30.1 15.5C29.5 15.5 28.9 15.5 28.3 15.5C28 15.5 27.8 15.4 27.6 15.2C27 14.6 26.5 14 25.9 13.5C24.9 13.5 23.9 13.5 23 13.5ZM24 12.5C24.6 12.5 25.2 12.5 25.8 12.5C26.1 12.5 26.3 12.6 26.5 12.8C27.1 13.4 27.6 13.9 28.2 14.5C28.5 14.5 28.7 14.5 29 14.5C29 13.5 29 12.5 29 11.5C27.3 11.5 25.7 11.5 24 11.5C24 11.9 24 12.2 24 12.5Z" fill="white"/>
<path d="M22.9996 22.6001C22.9996 22.3001 22.9996 22.0001 22.9996 21.7001C22.9996 21.1001 23.3996 20.6001 24.0996 20.6001C25.6996 20.6001 27.3996 20.6001 28.9996 20.6001C29.5996 20.6001 29.9996 21.0001 29.9996 21.6001C29.9996 22.5001 29.9996 23.4001 29.9996 24.2001C29.9996 24.3001 29.9996 24.4001 29.9996 24.5001C30.1996 24.5001 30.2996 24.5001 30.4996 24.5001C30.7996 24.5001 30.9996 24.7001 30.9996 25.0001C30.9996 26.0001 30.9996 27.0001 30.9996 28.1001C30.9996 28.9001 30.2996 29.5001 29.5996 29.5001C27.5996 29.5001 25.4996 29.5001 23.4996 29.5001C22.6996 29.5001 22.0996 28.8001 22.0996 28.0001C22.0996 26.3001 22.0996 24.7001 22.0996 23.0001C22.0996 22.6001 22.2996 22.4001 22.6996 22.4001C22.6996 22.6001 22.7996 22.6001 22.9996 22.6001ZM25.7996 23.6001C24.7996 23.6001 23.8996 23.6001 22.9996 23.6001C22.9996 25.1001 22.9996 26.6001 22.9996 28.1001C22.9996 28.4001 23.1996 28.6001 23.5996 28.6001C25.4996 28.6001 27.4996 28.6001 29.3996 28.6001C29.7996 28.6001 29.9996 28.4001 29.9996 28.0001C29.9996 27.5001 29.9996 26.9001 29.9996 26.4001C29.9996 26.1001 29.9996 25.9001 29.9996 25.6001C29.3996 25.6001 28.7996 25.6001 28.1996 25.6001C27.8996 25.6001 27.6996 25.5001 27.4996 25.3001C26.8996 24.7001 26.3996 24.1001 25.7996 23.6001ZM23.9996 22.6001C24.5996 22.6001 25.1996 22.6001 25.7996 22.6001C26.0996 22.6001 26.2996 22.7001 26.3996 22.9001C26.9996 23.5001 27.5996 24.1001 28.0996 24.6001C28.3996 24.6001 28.5996 24.6001 28.8996 24.6001C28.8996 23.6001 28.8996 22.6001 28.8996 21.6001C27.1996 21.6001 25.5996 21.6001 23.8996 21.6001C23.9996 21.9001 23.9996 22.2001 23.9996 22.6001Z" fill="white"/>
<path d="M16 15.5C16 15.1 16 14.8 16 14.5C16.5 14.5 17 14.5 17.4 14.5C17.5 14.4 17.5 14.2 17.5 14.1C17.5 11.3 17.5 8.49998 17.5 5.69998C17.5 5.09998 17.6 5 18.2 5C19.1 5 20 5 21 5C21 5.3 21 5.6 21 6C20.2 6 19.4 6 18.5 6C18.5 8.9 18.5 11.7 18.5 14.5C19.3 14.5 20.1 14.5 21 14.5C21 14.8 21 15.2 21 15.5C20.2 15.5 19.4 15.5 18.5 15.5C18.5 18.9 18.5 22.2 18.5 25.5C19.3 25.5 20.1 25.5 21 25.5C21 25.8 21 26.2 21 26.5C20.9 26.6 20.9 26.5 20.8 26.5C19.9 26.5 19 26.5 18.2 26.5C17.7 26.5 17.6 26.3 17.6 25.8C17.6 22.5 17.6 19.1 17.6 15.8C17.6 15.7 17.6 15.6 17.6 15.4C17 15.5 16.5 15.5 16 15.5Z" fill="white"/>
</svg>
