<svg width="28" height="27" viewBox="0 0 28 27" fill="none" xmlns="http://www.w3.org/2000/svg">
<path d="M26.5998 0.5C25.8998 0.5 25.1998 0.5 24.5998 0.5C24.3998 0.5 24.0998 0.7 24.0998 1C23.9998 1.2 24.0998 1.50001 24.2998 1.70001L24.3998 1.79999L24.7998 2L24.4998 2.29999L21.6998 5.10001L21.0998 4.5C20.7998 4.2 20.5998 4.00001 20.2998 3.70001C19.9998 3.30001 19.5998 3.40001 19.2998 3.70001L19.1998 3.79999C18.7998 4.19999 18.4998 4.49999 18.0998 4.89999C17.8998 5.09999 17.7998 5.19999 17.5998 5.39999L16.9998 6L16.5998 5.20001C14.9998 2.20001 12.5998 0.7 9.19976 0.5C8.99976 0.5 8.79976 0.600012 8.69976 0.700012C8.59976 0.800012 8.49976 1.00001 8.49976 1.10001C8.49976 1.50001 8.79976 1.70001 9.19976 1.70001C9.49976 1.70001 9.79976 1.69999 10.1998 1.79999C12.6998 2.19999 14.7998 3.90001 15.6998 6.20001C16.5998 8.60001 16.1998 11.2 14.6998 13.2C14.5998 13.3 14.4998 13.4 14.3998 13.6L13.7998 14.3L13.5998 13.4C13.5998 13.3 13.5998 13.2 13.4998 13.1C13.1998 11.9 12.1998 11.2 10.9998 11.1H7.19976C5.99976 11.1 4.99976 11.9 4.69976 13.1C4.69976 13.2 4.69976 13.3 4.59976 13.4L4.39976 14.2L3.89976 13.8C1.59976 11.6 1.19976 7.80001 2.89976 5.20001L2.99976 5H3.19976C3.39976 5 3.49976 5.09999 3.59976 5.29999C3.69976 5.39999 3.89976 5.70001 4.29976 5.60001C4.59976 5.50001 4.79976 5.3 4.79976 5C4.79976 4.4 4.79976 3.70001 4.79976 3.10001C4.79976 2.70001 4.49976 2.5 4.19976 2.5C3.89976 2.5 3.59976 2.5 3.19976 2.5C2.89976 2.5 2.49976 2.5 2.19976 2.5C1.89976 2.5 1.69976 2.7 1.59976 3C1.59976 3.2 1.59976 3.50001 1.99976 3.70001L2.29976 3.89999L2.09976 4.20001C-0.400241 7.90001 0.599762 12.2 2.89976 14.6C5.39976 17.2 9.09976 18 12.2998 16.6C15.2998 15.3 17.8998 11.8 17.2998 7.5V7.29999L19.5998 5L19.7998 5.10001C19.8998 5.10001 19.8998 5.20001 19.9998 5.20001L21.0998 6.29999C21.4998 6.69999 21.7998 6.69999 22.1998 6.29999L25.0998 3.39999C25.1998 3.29999 25.2998 3.20001 25.4998 3.10001L25.6998 3L25.8998 3.29999C25.9998 3.49999 26.2998 3.70001 26.5998 3.60001C26.8998 3.50001 27.0998 3.3 27.0998 3C27.0998 2.4 27.0998 1.80001 27.0998 1.10001C27.1998 0.800006 26.9998 0.5 26.5998 0.5ZM12.3998 14.5V15.1L12.1998 15.2C11.1998 15.7 10.1998 15.9 9.19976 15.9C8.19976 15.9 7.19976 15.7 6.19976 15.2L5.99976 15.1V14.5C5.99976 14.2 5.99976 13.8 5.99976 13.5C5.99976 12.9 6.59976 12.3 7.19976 12.3C8.49976 12.3 9.79976 12.3 11.1998 12.3C11.8998 12.3 12.3998 12.9 12.4998 13.6C12.3998 13.9 12.3998 14.2 12.3998 14.5Z" fill="#878787"/>
<path d="M9.19961 5.30005C7.79961 5.30005 6.69961 6.40005 6.59961 7.90005C6.59961 8.60005 6.89961 9.20007 7.39961 9.70007C7.89961 10.2001 8.49961 10.4001 9.19961 10.4001C10.5996 10.4001 11.6996 9.20005 11.6996 7.90005C11.6996 6.40005 10.5996 5.30005 9.19961 5.30005ZM10.4996 7.90005C10.4996 8.60005 9.89961 9.20007 9.19961 9.20007C8.89961 9.20007 8.49961 9.10005 8.29961 8.80005C7.99961 8.50005 7.89961 8.20005 7.89961 7.90005C7.89961 7.20005 8.49961 6.60007 9.19961 6.60007C9.89961 6.60007 10.4996 7.10005 10.4996 7.90005Z" fill="#878787"/>
<path d="M26.4999 9.19995C25.2999 9.19995 23.9999 9.19995 22.7999 9.19995C22.2999 9.19995 22.0999 9.39993 22.0999 9.89993V12.3999C22.0999 12.4999 22.0999 12.6999 21.9999 12.8999L21.8999 12.9999H18.9999C18.4999 12.9999 18.1999 13.1999 18.1999 13.7999V16.2C18.1999 16.4 18.1999 16.6 18.0999 16.7L17.9999 16.7999H15.1999C14.4999 16.7999 14.2999 17 14.2999 17.7V20.7H11.0999C10.5999 20.7 10.3999 20.9 10.3999 21.4V26.0999C10.3999 26.5999 10.5999 26.7999 11.0999 26.7999H26.3999C26.8999 26.7999 27.0999 26.5999 27.0999 26.0999V9.79993C27.1999 9.39993 26.9999 9.19995 26.4999 9.19995ZM14.2999 25.5999H11.6999V21.9999H14.2999V25.5999ZM18.1999 25.5999H15.5999V18.2H18.1999V25.5999ZM22.0999 25.5999H19.4999V14.2999H22.0999V25.5999ZM25.8999 25.5999H23.2999V10.4999H25.8999V25.5999Z" fill="#878787"/>
</svg>
