<svg width="27" height="27" viewBox="0 0 27 27" fill="none" xmlns="http://www.w3.org/2000/svg">
<path d="M25.9616 0.100006C25.2616 0.100006 24.5616 0.100006 23.9616 0.100006C23.7616 0.100006 23.4616 0.300006 23.4616 0.600006C23.3616 0.800006 23.4616 1.10002 23.6616 1.30002L23.7616 1.39999L24.1616 1.60001L23.8616 1.89999L21.0616 4.60001L20.4616 4C20.1616 3.7 19.9616 3.50001 19.6616 3.20001C19.3616 2.80001 18.9616 2.90001 18.6616 3.20001L18.5616 3.30002C18.1616 3.70002 17.8616 3.99999 17.4616 4.39999C17.2616 4.59999 17.1616 4.69999 16.9616 4.89999L16.3616 5.5L15.9616 4.70001C14.3616 1.70001 11.9616 0.2 8.56157 0C8.36158 0 8.16158 0.100012 8.06157 0.200012C7.96158 0.300012 7.86158 0.500006 7.86158 0.600006C7.86158 1.00001 8.16158 1.20001 8.56157 1.20001C8.86158 1.20001 9.16158 1.20002 9.56157 1.30002C12.0616 1.70002 14.1616 3.40001 15.0616 5.70001C15.9616 8.10001 15.5616 10.7 14.0616 12.7C13.9616 12.8 13.8616 12.9 13.7616 13.1L13.1616 13.8L12.9616 12.9C12.9616 12.8 12.9616 12.7 12.8616 12.6C12.5616 11.4 11.5616 10.7 10.3616 10.6H6.56157C5.36158 10.6 4.36158 11.4 4.06157 12.6C4.06157 12.7 4.06158 12.8 3.96158 12.9L3.76158 13.7L3.26158 13.3C0.961576 11.1 0.561576 7.30001 2.26158 4.70001L2.36157 4.5H2.56157C2.76157 4.5 2.86158 4.60002 2.96158 4.80002C3.06158 4.90002 3.26157 5.20001 3.66157 5.10001C3.96157 5.00001 4.16157 4.8 4.16157 4.5C4.16157 3.9 4.16157 3.20001 4.16157 2.60001C4.16157 2.20001 3.86157 2 3.56157 2C3.26157 2 2.96158 2 2.56157 2C2.26157 2 1.86157 2 1.56157 2C1.26157 2 1.06158 2.2 0.961576 2.5C0.961576 2.7 0.961574 3.00001 1.36157 3.20001L1.66157 3.39999L1.46158 3.70001C-1.03842 7.40001 -0.0384243 11.7 2.26158 14.1C4.76158 16.7 8.46157 17.5 11.6616 16.1C14.6616 14.8 17.2616 11.3 16.6616 7V6.80002L18.9616 4.5L19.1616 4.60001C19.2616 4.60001 19.2616 4.70001 19.3616 4.70001L20.4616 5.80002C20.8616 6.20002 21.1616 6.20002 21.5616 5.80002L24.4616 2.89999C24.5616 2.79999 24.6616 2.70001 24.8616 2.60001L25.0616 2.5L25.2616 2.80002C25.3616 3.00002 25.6616 3.20001 25.9616 3.10001C26.2616 3.00001 26.4616 2.8 26.4616 2.5C26.4616 1.9 26.4616 1.30001 26.4616 0.600006C26.5616 0.400006 26.3616 0.100006 25.9616 0.100006ZM11.8616 14.1V14.7L11.6616 14.8C10.6616 15.3 9.66157 15.5 8.66157 15.5C7.66157 15.5 6.66157 15.3 5.66157 14.8L5.46158 14.7V14.1C5.46158 13.8 5.46158 13.4 5.46158 13.1C5.46158 12.5 6.06157 11.9 6.66157 11.9C7.96157 11.9 9.26157 11.9 10.6616 11.9C11.3616 11.9 11.8616 12.5 11.9616 13.2C11.8616 13.5 11.8616 13.8 11.8616 14.1Z" fill="white"/>
<path d="M8.56191 4.8999C7.16191 4.8999 6.06191 5.99991 5.96191 7.49991C5.96191 8.19991 6.26191 8.79993 6.76191 9.29993C7.26191 9.79993 7.86191 9.99991 8.56191 9.99991C9.96191 9.99991 11.0619 8.79991 11.0619 7.49991C11.1619 5.99991 9.96191 4.8999 8.56191 4.8999ZM9.86192 7.49991C9.86192 8.19991 9.26191 8.79993 8.56191 8.79993C8.26191 8.79993 7.86191 8.6999 7.66191 8.3999C7.36191 8.0999 7.26191 7.79991 7.26191 7.49991C7.26191 6.79991 7.86191 6.19992 8.56191 6.19992C9.26191 6.19992 9.86192 6.69991 9.86192 7.49991Z" fill="white"/>
<path d="M25.8617 8.80005C24.6617 8.80005 23.3617 8.80005 22.1617 8.80005C21.6617 8.80005 21.4617 9.00003 21.4617 9.50003V12C21.4617 12.1 21.4617 12.3 21.3617 12.5L21.2617 12.6H18.3617C17.8617 12.6 17.5617 12.8 17.5617 13.4V15.8C17.5617 16 17.5617 16.2 17.4617 16.3L17.3617 16.4H14.5617C13.8617 16.4 13.6617 16.6 13.6617 17.3V20.3H10.4617C9.96172 20.3 9.76172 20.5001 9.76172 21.0001V25.7C9.76172 26.2 9.96172 26.4 10.4617 26.4H25.7617C26.2617 26.4 26.4617 26.2 26.4617 25.7V9.40002C26.5617 9.00002 26.3617 8.80005 25.8617 8.80005ZM13.7617 25.2H11.1617V21.6H13.7617V25.2ZM17.5617 25.2H15.0617V17.8H17.6617V25.2H17.5617ZM21.4617 25.2H18.8617V13.9H21.4617V25.2ZM25.2617 25.2H22.6617V10.1H25.2617V25.2Z" fill="white"/>
</svg>
