<svg width="241" height="52" viewBox="0 0 241 52" fill="none" xmlns="http://www.w3.org/2000/svg">
<path d="M26.1996 22.3001C26.2996 22.4001 26.2996 22.4001 26.2996 22.5001L29.2996 25.4001L30.9996 27.1001C35.5996 31.5001 33.7996 34.9001 30.4996 38.2001C27.2996 41.4001 23.2996 42.3001 19.8996 39.1001L19.7996 39.0001C19.6996 38.9001 19.6996 38.9001 19.6996 38.9001L2.79961 21.7001C1.99961 20.9001 1.8996 21.0001 1.5996 22.0001C1.0996 23.4001 0.699606 25.4001 0.799606 26.4001C1.19961 37.0001 15.9996 51.7001 26.1996 51.6001C34.5996 51.5001 42.0996 43.7001 47.1996 36.7001C47.3996 36.4001 47.2996 36.0001 47.0996 35.8001C41.6996 30.5001 36.1996 24.7001 30.6996 19.4001L30.1996 18.9001L29.6996 18.5001L29.5996 18.4001C29.1996 18.0001 28.5996 17.9001 27.8996 18.0001C26.6996 18.1001 25.4996 19.2001 25.3996 20.5001C25.3996 21.1001 25.4996 21.7001 25.8996 22.1001L26.1996 22.3001Z" fill="white"/>
<path d="M26.5 0.900024C18 1.00002 10 9.30003 5 16.3L22.2 33.5C22.3 33.6 22.3 33.6 22.4 33.7C23 34.3 23.8 34.6 24.7 34.6C25.8 34.5 26.9 33.4 26.9 32.1C27 31.1 26.5 30.4 25.7 29.6L20.9 24.8L20.8 24.7C17.8 21.6 18.3 17.8 21.8 14.1C24.8 11 28.8 9.90002 32.4 13.4L33.1 14.1L50.4 31.4C51 30.2 51.6 28.1 51.6 26.3C51.7 15.6 36.6 0.900024 26.5 0.900024Z" fill="white"/>
<path d="M67.1992 48.4V36.2H68.8992V48.4H67.1992Z" fill="white"/>
<path d="M73.3994 48.4V39.4H74.9994V41.1C75.8994 39.9 76.8994 39.2 78.0994 39.2C78.8994 39.2 79.4994 39.4 79.8994 39.9C80.2994 40.4 80.5994 41.1 80.5994 41.9V48.3H78.9994V42.4C78.9994 41.7 78.8994 41.2 78.6994 41C78.4994 40.7 78.1994 40.6 77.7994 40.6C76.7994 40.6 75.8994 41.3 74.9994 42.6V48.4H73.3994Z" fill="white"/>
<path d="M87.599 48.6C86.799 48.6 86.199 48.4 85.699 47.9C85.299 47.4 84.999 46.7 84.999 45.9V40.6H83.999V39.4H85.099V37.7L86.699 37.6V39.4H88.999V40.6H86.699V45.6C86.699 46.8 87.199 47.3 88.199 47.3C88.399 47.3 88.599 47.3 88.999 47.2V48.4C88.399 48.5 87.999 48.6 87.599 48.6Z" fill="white"/>
<path d="M98.9988 48.1001C97.8988 48.5001 96.9988 48.6001 96.1988 48.6001C94.8988 48.6001 93.7988 48.2 92.9988 47.3C92.1988 46.4 91.7988 45.3 91.7988 43.9C91.7988 42.5 92.1988 41.4 92.8988 40.6C93.5988 39.7 94.5988 39.3 95.6988 39.3C96.7988 39.3 97.5988 39.7 98.1988 40.5C98.7988 41.3 99.0988 42.4 99.0988 43.8V44.3H93.4988C93.6988 46.5 94.6988 47.5 96.5988 47.5C97.2988 47.5 97.9988 47.3 99.0988 46.9V48.1001H98.9988ZM93.5988 42.9H97.4988C97.4988 41.2 96.8988 40.4 95.6988 40.4C94.3988 40.4 93.6988 41.3 93.5988 42.9Z" fill="white"/>
<path d="M103.1 48.4V35.4H104.7V48.5L103.1 48.4Z" fill="white"/>
<path d="M109.299 48.4V35.4H110.899V48.5L109.299 48.4Z" fill="white"/>
<path d="M115.399 37.8V36.1H116.999V37.8H115.399ZM115.399 48.4V39.4H116.999V48.4H115.399Z" fill="white"/>
<path d="M121.599 51.4L121.799 50C122.699 50.4 123.599 50.7 124.599 50.7C126.399 50.7 127.299 49.8 127.299 47.8V46.4C126.699 47.6 125.699 48.3 124.399 48.3C123.299 48.3 122.499 47.9001 121.899 47.1001C121.199 46.3001 120.999 45.3 120.999 43.9C120.999 42.5 121.399 41.4 122.099 40.6C122.799 39.7 123.699 39.3 124.899 39.3C125.899 39.3 126.699 39.7 127.399 40.5V39.5H128.999V46C128.999 47.4 128.899 48.5001 128.799 49.1001C128.699 49.8001 128.399 50.3 127.999 50.8C127.299 51.5 126.199 52 124.699 52C123.599 51.8 122.499 51.7 121.599 51.4ZM127.199 45.2V41.4C126.499 40.7 125.799 40.3 124.899 40.3C124.199 40.3 123.599 40.6 123.199 41.2C122.799 41.8 122.499 42.6 122.499 43.7C122.499 45.7 123.199 46.7 124.499 46.7C125.499 46.8 126.399 46.3 127.199 45.2Z" fill="white"/>
<path d="M139.699 48.1001C138.599 48.5001 137.699 48.6001 136.899 48.6001C135.599 48.6001 134.499 48.2 133.699 47.3C132.899 46.4 132.499 45.3 132.499 43.9C132.499 42.5 132.899 41.4 133.599 40.6C134.299 39.7 135.299 39.3 136.399 39.3C137.499 39.3 138.299 39.7 138.899 40.5C139.499 41.3 139.799 42.4 139.799 43.8V44.3H134.199C134.399 46.5 135.399 47.5 137.199 47.5C137.899 47.5 138.599 47.3 139.699 46.9V48.1001ZM134.299 42.9H138.199C138.199 41.2 137.599 40.4 136.399 40.4C135.099 40.4 134.399 41.3 134.299 42.9Z" fill="white"/>
<path d="M143.799 48.4V39.4H145.399V41.1C146.299 39.9 147.299 39.2 148.499 39.2C149.299 39.2 149.899 39.4 150.299 39.9C150.699 40.4 150.999 41.1 150.999 41.9V48.3H149.399V42.4C149.399 41.7 149.299 41.2 149.099 41C148.899 40.7 148.599 40.6 148.199 40.6C147.199 40.6 146.299 41.3 145.399 42.6V48.4H143.799Z" fill="white"/>
<path d="M158.199 48.6C157.399 48.6 156.799 48.4 156.299 47.9C155.899 47.4 155.599 46.7 155.599 45.9V40.6H154.499V39.4H155.599V37.7L157.199 37.6V39.4H159.499V40.6H157.099V45.6C157.099 46.8 157.599 47.3 158.599 47.3C158.799 47.3 158.999 47.3 159.399 47.2V48.4C158.999 48.5 158.499 48.6 158.199 48.6Z" fill="white"/>
<path d="M171.899 48.7C171.099 48.7 170.099 48.6 168.799 48.2V46.5C170.199 47.2 171.299 47.4 172.099 47.4C172.799 47.4 173.299 47.3 173.699 46.9C174.099 46.5 174.299 46.1 174.299 45.5C174.299 45 174.199 44.6 173.899 44.3C173.599 44 173.099 43.6 172.499 43.1L171.699 42.6C170.699 42 169.999 41.4 169.499 40.9C169.099 40.4 168.799 39.7 168.799 39.1C168.799 38.2 169.199 37.4 169.799 36.8C170.499 36.2 171.299 35.9 172.299 35.9C173.199 35.9 174.199 36 175.199 36.4V37.9C173.899 37.4 172.999 37.1 172.399 37.1C171.799 37.1 171.299 37.2 170.999 37.6C170.599 37.9 170.399 38.3 170.399 38.8C170.399 39.2 170.499 39.6 170.799 39.9C171.099 40.2 171.599 40.6 172.299 41.1L173.199 41.6C174.199 42.2 174.899 42.8 175.399 43.3C175.799 43.8 176.099 44.5 176.099 45.3C176.099 46.4 175.699 47.3 174.899 47.8C174.199 48.4 173.199 48.7 171.899 48.7Z" fill="white"/>
<path d="M180.499 51.7L181.899 48.4L178.499 39.4H180.199L182.699 46.2L185.399 39.4H186.899L181.999 51.6H180.499V51.7Z" fill="white"/>
<path d="M192.3 48.6C191.6 48.6 190.7 48.5 189.6 48.1V46.6C190.6 47.1 191.6 47.4 192.4 47.4C192.8 47.4 193.3 47.3 193.6 47C193.9 46.8 194 46.4 194 46.1C194 45.5 193.6 45.1 192.7 44.7L191.8 44.3C190.4 43.7 189.7 42.9 189.7 41.8C189.7 41 190 40.4 190.5 39.9C191.1 39.5 191.8 39.2 192.7 39.2C193.2 39.2 193.8 39.3 194.5 39.4L194.9 39.5V40.9C194 40.6 193.3 40.5 192.8 40.5C191.8 40.5 191.3 40.9 191.3 41.7C191.3 42.2 191.7 42.6 192.5 42.9L193.3 43.3C194.2 43.7 194.8 44.1 195.2 44.5C195.6 44.9 195.8 45.4 195.8 46.1C195.8 46.9 195.5 47.5 194.9 48.1C194 48.4 193.3 48.6 192.3 48.6Z" fill="white"/>
<path d="M202.399 48.6C201.599 48.6 200.999 48.4 200.499 47.9C200.099 47.4 199.799 46.7 199.799 45.9V40.6H198.699V39.4H199.799V37.7L201.399 37.6V39.4H203.699V40.6H201.399V45.6C201.399 46.8 201.899 47.3 202.899 47.3C203.099 47.3 203.299 47.3 203.699 47.2V48.4C203.199 48.5 202.799 48.6 202.399 48.6Z" fill="white"/>
<path d="M213.8 48.1001C212.7 48.5001 211.8 48.6001 211 48.6001C209.7 48.6001 208.6 48.2 207.8 47.3C207 46.4 206.6 45.3 206.6 43.9C206.6 42.5 207 41.4 207.7 40.6C208.4 39.7 209.4 39.3 210.5 39.3C211.6 39.3 212.4 39.7 213 40.5C213.6 41.3 213.9 42.4 213.9 43.8V44.3H208.3C208.5 46.5 209.5 47.5 211.3 47.5C212 47.5 212.7 47.3 213.8 46.9V48.1001ZM208.3 42.9H212.2C212.2 41.2 211.6 40.4 210.4 40.4C209.1 40.4 208.5 41.3 208.3 42.9Z" fill="white"/>
<path d="M217.899 48.4V39.4H219.499V41.1C220.299 39.9 221.299 39.2 222.499 39.2C223.699 39.2 224.499 39.9 224.899 41.1C225.599 39.9 226.599 39.2 227.899 39.2C228.699 39.2 229.299 39.4 229.699 39.9C230.099 40.3 230.399 41 230.399 41.9V48.4H228.799V42.1C228.799 41.1 228.399 40.6 227.599 40.6C226.799 40.6 225.899 41.2 224.999 42.4V48.4H223.399V42.1C223.399 41.1 222.999 40.6 222.199 40.6C221.399 40.6 220.499 41.2 219.599 42.4V48.4H217.899Z" fill="white"/>
<path d="M237.099 48.6C236.399 48.6 235.499 48.5 234.399 48.1V46.6C235.399 47.1 236.399 47.4 237.199 47.4C237.599 47.4 238.099 47.3 238.399 47C238.699 46.8 238.799 46.4 238.799 46.1C238.799 45.5 238.399 45.1 237.499 44.7L236.599 44.3C235.199 43.7 234.499 42.9 234.499 41.8C234.499 41 234.799 40.4 235.299 39.9C235.899 39.5 236.599 39.2 237.499 39.2C237.999 39.2 238.599 39.3 239.299 39.4L239.699 39.5V40.9C238.799 40.6 238.099 40.5 237.599 40.5C236.599 40.5 236.099 40.9 236.099 41.7C236.099 42.2 236.499 42.6 237.299 42.9L238.099 43.3C238.999 43.7 239.599 44.1 239.999 44.5C240.399 44.9 240.599 45.4 240.599 46.1C240.599 46.9 240.299 47.5 239.699 48.1C238.799 48.4 237.999 48.6 237.099 48.6Z" fill="white"/>
<path d="M67.3994 24V20.7C69.4994 21.6 71.1994 22 72.6994 22C73.6994 22 74.4994 21.8 75.1994 21.3C75.7994 20.9 76.0994 20.2 76.0994 19.4C76.0994 18.7 75.8994 18.2 75.4994 17.8C75.0994 17.4 74.3994 16.9 73.3994 16.2L72.0994 15.5C70.3994 14.5 69.0994 13.5 68.4994 12.7C67.7994 11.8 67.3994 10.7 67.3994 9.50002C67.3994 7.90002 67.9994 6.60001 69.0994 5.60001C70.2994 4.60001 71.7994 4.20001 73.6994 4.20001C75.1994 4.20001 76.9994 4.40002 78.8994 4.90002V8.00002C76.8994 7.30002 75.3994 6.80002 74.2994 6.80002C73.3994 6.80002 72.6994 7.00002 72.1994 7.40002C71.6994 7.80002 71.3994 8.30002 71.3994 9.00002C71.3994 9.50002 71.5994 10 71.9994 10.4C72.3994 10.8 73.0994 11.3 74.0994 11.9L75.4994 12.7C77.3994 13.8 78.5994 14.7 79.2994 15.6C79.9994 16.5 80.3994 17.6 80.3994 18.9C80.3994 20.7 79.6994 22.2 78.3994 23.2C77.0994 24.2 75.1994 24.7 72.8994 24.7C71.1994 24.6 69.3994 24.4 67.3994 24Z" fill="white"/>
<path d="M91.6998 24.1V15.9L85.2998 4.5H89.6998L94.3998 12.8L99.2998 4.5H102.5L95.7998 15.9V24.1H91.6998Z" fill="white"/>
<path d="M108.8 24.1V4.5H112.3L121.2 17.9V4.5H124.4V24H120.8L112 10.7V24.1H108.8Z" fill="white"/>
<path d="M132.8 24.1V4.5H144.8V7.2H136.8V12.7H143.4V15.3H136.8V21.3H145.4V24.1H132.8Z" fill="white"/>
<path d="M152.199 24.1V4.5H159.399C163.299 4.5 165.299 6.1 165.299 9.4C165.299 10.6 164.899 11.7 164.299 12.7C163.599 13.7 162.699 14.4 161.499 15L167.799 24.1H162.899L158.099 16.1H155.899V24.1H152.199ZM155.899 13.5H156.799C159.699 13.5 161.099 12.3 161.099 9.9C161.099 8.2 159.799 7.3 157.199 7.3H155.799V13.5H155.899Z" fill="white"/>
<path d="M189.299 23.7C186.899 24.4 184.799 24.6 183.099 24.6C179.799 24.6 177.199 23.7 175.399 21.9C173.599 20.1 172.699 17.6 172.699 14.2C172.699 10.9 173.599 8.30002 175.399 6.60002C177.199 4.80002 179.699 3.90002 182.999 3.90002C185.099 3.90002 187.199 4.10002 189.199 4.60002V7.80003C186.799 6.90003 184.899 6.60002 183.299 6.60002C181.299 6.60002 179.699 7.30002 178.599 8.60002C177.499 9.90002 176.899 11.8 176.899 14.2C176.899 16.5 177.499 18.4 178.699 19.7C179.899 21 181.499 21.7 183.599 21.7C183.999 21.7 184.599 21.6 185.199 21.5V15.1H189.199L189.299 23.7Z" fill="white"/>
<path d="M197.3 24.1V4.5H201.3V24H197.3V24.1Z" fill="white"/>
<path d="M209.499 24.1V4.5H221.499V7.2H213.499V12.7H220.099V15.3H213.499V21.3H222.099V24.1H209.499Z" fill="white"/>
<path d="M227.899 24V20.7C229.999 21.6 231.699 22 233.199 22C234.199 22 234.999 21.8 235.699 21.3C236.299 20.9 236.599 20.2 236.599 19.4C236.599 18.7 236.399 18.2 235.999 17.8C235.599 17.4 234.899 16.9 233.899 16.2L232.599 15.5C230.899 14.5 229.599 13.5 228.999 12.7C228.299 11.8 227.899 10.7 227.899 9.50002C227.899 7.90002 228.499 6.60001 229.599 5.60001C230.699 4.60001 232.299 4.20001 234.199 4.20001C235.699 4.20001 237.499 4.40002 239.399 4.90002V8.00002C237.399 7.30002 235.899 6.80002 234.799 6.80002C233.899 6.80002 233.199 7.00002 232.699 7.40002C232.199 7.80002 231.899 8.30002 231.899 9.00002C231.899 9.50002 232.099 10 232.499 10.4C232.899 10.8 233.599 11.3 234.599 11.9L235.999 12.7C237.899 13.8 239.099 14.7 239.799 15.6C240.499 16.5 240.899 17.6 240.899 18.9C240.899 20.7 240.199 22.2 238.899 23.2C237.599 24.2 235.699 24.7 233.399 24.7C231.699 24.6 229.899 24.4 227.899 24Z" fill="white"/>
</svg>
