<svg width="227" height="29" viewBox="0 0 227 29" fill="none" xmlns="http://www.w3.org/2000/svg">
<path d="M27.8095 0C30.1602 0 32.1783 0.754006 33.8415 2.26202C35.527 3.77003 36.3475 5.58851 36.3031 7.71747C36.3031 8.80412 36.0592 9.84642 35.5713 10.8444C35.0834 11.8201 34.3959 12.6629 33.5311 13.3725C34.906 14.06 35.9927 15.0136 36.8132 16.2555C37.6337 17.4974 38.0551 18.828 38.0551 20.3138C38.0551 22.4871 37.2124 24.3499 35.527 25.9023C33.8637 27.4325 31.8235 28.1865 29.4062 28.1865H0V0H27.8095ZM7.67311 11.4653H25.3257C26.1684 11.4653 26.8781 11.1992 27.4325 10.667C28.0091 10.1347 28.2974 9.4916 28.2974 8.73759C28.2974 7.96141 28.0091 7.29611 27.4325 6.78605C26.8559 6.25381 26.1462 5.98769 25.3257 5.98769H7.67311V11.4653ZM7.67311 22.1988H27.2551C28.0978 22.1988 28.7853 21.9327 29.3619 21.4004C29.9828 20.8682 30.2711 20.2251 30.2267 19.4489C30.2267 18.6727 29.9384 18.0296 29.3397 17.4974C28.7631 16.9651 28.0756 16.699 27.2329 16.7212H7.67311V22.1988Z" fill="#45B3B2"/>
<path d="M94.0508 0V18.6062C94.0508 19.5154 94.4056 20.2916 95.0931 20.9569C95.8027 21.5779 96.6454 21.8883 97.6655 21.9105H119.598C120.618 21.8662 121.483 21.5557 122.171 20.9347C122.88 20.2694 123.213 19.4933 123.213 18.6062V0H124.277C127.937 0 130.908 2.97167 130.908 6.63081V19.9368C130.93 22.221 130.043 24.1503 128.269 25.7471C126.517 27.3438 124.388 28.1421 121.86 28.1421H95.4035C92.8976 28.1421 90.7686 27.3438 88.9945 25.7471C87.2425 24.1503 86.3555 22.1988 86.3555 19.9368V6.63081C86.3555 2.97167 89.3271 0 92.9863 0H94.0508Z" fill="#45B3B2"/>
<path d="M181.139 0V28.1421H173.444V10.3121L161.979 25.614H155.392L143.927 10.3121V28.1421H136.231V0H144.215L158.674 19.7372L173.133 0H181.139Z" fill="#45B3B2"/>
<path d="M66.0419 0H58.391L40.5166 28.1421H48.7663L62.2275 6.98564L75.6444 28.1421H83.9163L66.0419 0Z" fill="#45B3B2"/>
<path d="M209.126 0H201.475L183.601 28.1421H191.872L205.334 6.98564L218.728 28.1421H227L209.126 0Z" fill="#45B3B2"/>
<path d="M104.806 7.58667H101.79V10.6027H104.806V7.58667Z" fill="#45B3B2"/>
<path d="M101.769 10.6038H98.7529V13.6198H101.769V10.6038Z" fill="#45B3B2"/>
<path d="M104.806 13.6187H101.79V16.6347H104.806V13.6187Z" fill="#45B3B2"/>
<path d="M107.823 10.6038H104.807V13.6198H107.823V10.6038Z" fill="#45B3B2"/>
<path d="M118.069 7.58667H115.053V10.6027H118.069V7.58667Z" fill="#45B3B2"/>
<path d="M115.052 10.6038H112.036V13.6198H115.052V10.6038Z" fill="#45B3B2"/>
<path d="M118.069 13.6187H115.053V16.6347H118.069V13.6187Z" fill="#45B3B2"/>
</svg>
