<svg width="267" height="34" viewBox="0 0 267 34" fill="none" xmlns="http://www.w3.org/2000/svg">
<path d="M32.7098 0C35.4748 0 37.8485 0.886871 39.8048 2.66061C41.7872 4.43435 42.7523 6.57327 42.7002 9.07737C42.7002 10.3555 42.4132 11.5815 41.8394 12.7553C41.2655 13.903 40.4569 14.8942 39.4396 15.7289C41.0569 16.5375 42.335 17.6591 43.3001 19.1199C44.2652 20.5806 44.7608 22.1457 44.7608 23.8933C44.7608 26.4496 43.7696 28.6407 41.7872 30.4666C39.8309 32.2664 37.4311 33.1533 34.5879 33.1533H0V0H32.7098ZM9.0252 13.4856H29.7884C30.7796 13.4856 31.6143 13.1726 32.2664 12.5466C32.9446 11.9206 33.2837 11.1641 33.2837 10.2773C33.2837 9.3643 32.9446 8.58177 32.2664 7.98183C31.5882 7.3558 30.7535 7.04279 29.7884 7.04279H9.0252V13.4856ZM9.0252 26.1105H32.0577C33.0489 26.1105 33.8576 25.7975 34.5358 25.1715C35.2661 24.5454 35.6052 23.789 35.553 22.876C35.553 21.9631 35.2139 21.2066 34.5097 20.5806C33.8315 19.9546 33.0229 19.6416 32.0317 19.6676H9.0252V26.1105Z" fill="white"/>
<path d="M110.624 0V21.8848C110.624 22.9543 111.041 23.8672 111.85 24.6498C112.685 25.3801 113.676 25.7453 114.876 25.7714H140.673C141.873 25.7192 142.89 25.354 143.699 24.6237C144.534 23.8412 144.925 22.9282 144.925 21.8848V0H146.177C150.481 0 153.976 3.49531 153.976 7.79924V23.4499C154.002 26.1366 152.959 28.4059 150.872 30.284C148.812 32.1621 146.308 33.1011 143.334 33.1011H112.215C109.268 33.1011 106.764 32.1621 104.677 30.284C102.616 28.4059 101.573 26.1105 101.573 23.4499V7.79924C101.573 3.49531 105.068 0 109.372 0H110.624Z" fill="white"/>
<path d="M213.057 0V33.1011H204.006V12.1292L190.521 30.1275H182.774L169.288 12.1292V33.1011H160.237V0H169.627L186.634 23.2151L203.641 0H213.057Z" fill="white"/>
<path d="M77.6794 0H68.6803L47.6562 33.1011H57.3597L73.1929 8.21659L88.9739 33.1011H98.7034L77.6794 0Z" fill="white"/>
<path d="M245.976 0H236.977L215.953 33.1011H225.682L241.515 8.21659L257.27 33.1011H267L245.976 0Z" fill="white"/>
<path d="M123.275 8.92188H119.728V12.4694H123.275V8.92188Z" fill="white"/>
<path d="M119.702 12.4688H116.154V16.0162H119.702V12.4688Z" fill="white"/>
<path d="M123.275 16.0176H119.728V19.5651H123.275V16.0176Z" fill="white"/>
<path d="M126.823 12.4688H123.275V16.0162H126.823V12.4688Z" fill="white"/>
<path d="M138.873 8.92188H135.326V12.4694H138.873V8.92188Z" fill="white"/>
<path d="M135.326 12.4688H131.779V16.0162H135.326V12.4688Z" fill="white"/>
<path d="M138.873 16.0176H135.326V19.5651H138.873V16.0176Z" fill="white"/>
</svg>
