<svg width="28" height="28" viewBox="0 0 28 28" fill="none" xmlns="http://www.w3.org/2000/svg">
<path d="M0.600098 13.4999C0.700098 12.9999 1.0001 12.7999 1.4001 12.5999C1.6001 12.4999 1.9001 12.3999 2.1001 12.2999C2.2001 11.7999 2.4001 11.3999 2.7001 10.9999C2.6001 10.6999 2.5001 10.3999 2.3001 10.0999C2.1001 9.69995 2.2001 9.39995 2.5001 9.09995C2.8001 8.79994 3.0001 8.49993 3.3001 8.29993C3.6001 8.09993 3.9001 7.99995 4.3001 8.09995C4.6001 8.19994 4.9001 8.39994 5.2001 8.49994C5.6001 8.29994 6.0001 8.09994 6.5001 7.99994C6.6001 7.69994 6.7001 7.39995 6.8001 7.09995C7.0001 6.69994 7.2001 6.49994 7.7001 6.49994C8.1001 6.49994 8.4001 6.49994 8.8001 6.49994C9.2001 6.49994 9.5001 6.69994 9.7001 7.09995C9.8001 7.39995 9.9001 7.69994 10.0001 7.99994C10.5001 8.09994 10.9001 8.29994 11.3001 8.59995C11.6001 8.49995 11.9001 8.39995 12.2001 8.19995C12.6001 7.99995 12.9001 8.09993 13.2001 8.39993C13.5001 8.59993 13.7001 8.89995 14.0001 9.19995C14.3001 9.49995 14.3001 9.79995 14.2001 10.2C14.1001 10.5 14.0001 10.7999 13.8001 11.0999C14.0001 11.4999 14.2001 11.9999 14.3001 12.3999C14.9001 12.7999 15.8001 12.7 15.8001 13.7C16.3001 13.7 16.7001 13.7 17.1001 13.7C17.2001 13.6 17.1001 13.4999 17.1001 13.3999C17.1001 10.8999 17.1001 8.39993 17.1001 5.79993C17.1001 4.89993 17.7001 4.19993 18.6001 4.29993C18.8001 4.29993 19.1001 4.29993 19.3001 4.29993C19.4001 4.19993 19.4001 4.09994 19.4001 3.99994C19.4001 3.49994 19.4001 2.89993 19.4001 2.39993C19.4001 1.59993 19.7001 0.999951 20.5001 0.699951C22.5001 0.699951 24.4001 0.699951 26.4001 0.699951C27.0001 0.899951 27.4001 1.19993 27.5001 1.79993C27.5001 1.89993 27.5001 1.99995 27.5001 2.19995C27.5001 3.89995 27.5001 5.59993 27.5001 7.29993C27.5001 8.19993 26.9001 8.79993 26.0001 8.79993C24.3001 8.79993 22.6001 8.79993 20.9001 8.79993C20.0001 8.79993 19.4001 8.19993 19.4001 7.29993C19.4001 6.59993 19.4001 5.89995 19.4001 5.19995C19.1001 5.19995 18.7001 5.19995 18.4001 5.19995C18.2001 5.19995 18.1001 5.39995 18.1001 5.59995C18.1001 5.69994 18.1001 5.79993 18.1001 5.79993C18.1001 8.29993 18.1001 10.7999 18.1001 13.2999C18.1001 13.3999 18.1001 13.4999 18.1001 13.5999C18.5001 13.5999 19.0001 13.5999 19.4001 13.5999C19.5001 13.4999 19.4001 13.3999 19.4001 13.2999C19.4001 12.6999 19.4001 11.9999 19.4001 11.3999C19.4001 10.5999 20.0001 9.99994 20.8001 9.99994C22.6001 9.99994 24.4001 9.99994 26.1001 9.99994C26.9001 9.99994 27.5001 10.5999 27.5001 11.3999C27.5001 13.1999 27.5001 15 27.5001 16.7C27.5001 17.5 26.9001 18.0999 26.1001 18.0999C24.3001 18.0999 22.5001 18.0999 20.8001 18.0999C20.0001 18.0999 19.4001 17.5 19.4001 16.7C19.4001 16.1 19.4001 15.3999 19.4001 14.7999C19.4001 14.6999 19.4001 14.5999 19.4001 14.4999C19.0001 14.4999 18.6001 14.4999 18.1001 14.4999C18.0001 14.5999 18.1001 14.6999 18.1001 14.7999C18.1001 17.2999 18.1001 19.8999 18.1001 22.3999C18.1001 22.8999 18.2001 22.9999 18.7001 22.9999C18.9001 22.9999 19.2001 22.9999 19.4001 22.9999C19.5001 22.8999 19.5001 22.8 19.5001 22.7C19.5001 22.1 19.5001 21.4999 19.5001 20.8999C19.5001 19.9999 20.1001 19.4999 20.9001 19.4999C22.6001 19.4999 24.4001 19.4999 26.1001 19.4999C27.0001 19.4999 27.5001 20.0999 27.5001 20.8999C27.5001 22.5999 27.5001 24.3999 27.5001 26.0999C27.5001 26.9999 26.9001 27.4999 26.0001 27.4999C24.3001 27.4999 22.6001 27.4999 20.8001 27.4999C19.9001 27.4999 19.4001 26.8999 19.4001 26.0999C19.4001 25.3999 19.4001 24.6999 19.4001 23.9999C19.2001 23.8999 18.9001 23.9999 18.7001 23.9999C17.8001 24.0999 17.1001 23.3999 17.1001 22.4999C17.1001 19.9999 17.1001 17.4999 17.1001 14.9999C17.1001 14.8999 17.1001 14.8 17.1001 14.7C16.7001 14.7 16.2001 14.7 15.8001 14.7C15.8001 15.7 14.9001 15.6999 14.3001 15.9999C14.2001 16.3999 14.0001 16.8999 13.8001 17.2999C13.9001 17.5999 14.1001 17.9 14.2001 18.2C14.4001 18.6 14.3001 18.9 14.0001 19.2C13.7001 19.5 13.5001 19.7999 13.1001 20.0999C12.8001 20.2999 12.5001 20.4 12.2001 20.2C11.9001 20.1 11.6001 19.8999 11.3001 19.7999C10.9001 19.9999 10.5001 20.1999 10.0001 20.2999C9.9001 20.5999 9.8001 20.9 9.7001 21.2C9.5001 21.6 9.2001 21.7999 8.8001 21.7999C8.5001 21.7999 8.1001 21.7999 7.8001 21.7999C7.4001 21.7999 7.1001 21.6 6.9001 21.2C6.8001 20.9 6.7001 20.5999 6.6001 20.2999C6.2001 20.1999 5.7001 20 5.3001 19.7C5.0001 19.8 4.7001 19.8999 4.4001 20.0999C4.0001 20.2999 3.7001 20.1999 3.4001 19.8999C3.1001 19.5999 2.9001 19.3999 2.6001 19.0999C2.3001 18.7999 2.3001 18.4999 2.4001 18.0999C2.5001 17.7999 2.7001 17.5 2.8001 17.2C2.6001 16.8 2.4001 16.2999 2.3001 15.8999C1.7001 15.5999 0.900102 15.5999 0.800102 14.7999C0.600102 14.3999 0.600098 13.8999 0.600098 13.4999ZM3.9001 19.2999C4.2001 19.0999 4.6001 18.9999 4.9001 18.7999C5.1001 18.6999 5.3001 18.6999 5.5001 18.7999C5.9001 18.9999 6.4001 19.1999 6.8001 19.3999C7.0001 19.4999 7.2001 19.5999 7.3001 19.7999C7.4001 20.0999 7.6001 20.4999 7.7001 20.7999C8.1001 20.7999 8.4001 20.7999 8.8001 20.7999C8.9001 20.4999 9.1001 20.0999 9.2001 19.7999C9.3001 19.5999 9.4001 19.3999 9.7001 19.3999C10.1001 19.2999 10.5001 19.0999 10.9001 18.8999C11.1001 18.7999 11.4001 18.6999 11.6001 18.8999C11.9001 19.0999 12.3001 19.1999 12.6001 19.2999C12.9001 18.9999 13.2001 18.7999 13.4001 18.4999C13.2001 18.1999 13.1001 17.7999 13.0001 17.4999C12.9001 17.2999 12.9001 17.0999 13.0001 16.8999C13.2001 16.4999 13.4001 15.9999 13.5001 15.5999C13.6001 15.3999 13.7001 15.1999 13.9001 15.0999C14.2001 14.9999 14.6001 14.8 14.9001 14.7C14.9001 14.3 14.9001 13.9999 14.9001 13.5999C14.6001 13.4999 14.2001 13.3 13.9001 13.2C13.7001 13.1 13.5001 12.9999 13.5001 12.7999C13.4001 12.2999 13.2001 11.8999 13.0001 11.4999C12.9001 11.2999 12.9001 11.0999 13.0001 10.8999C13.2001 10.5999 13.3001 10.1999 13.4001 9.89993C13.1001 9.59993 12.9001 9.39995 12.6001 9.09995C12.3001 9.19995 11.9001 9.39994 11.6001 9.49994C11.4001 9.59994 11.2001 9.59994 11.0001 9.49994C10.6001 9.29994 10.2001 9.09994 9.7001 8.99994C9.4001 8.89994 9.3001 8.79994 9.2001 8.49994C9.1001 8.19994 8.9001 7.79994 8.8001 7.49994C8.4001 7.49994 8.1001 7.49994 7.7001 7.49994C7.6001 7.79994 7.4001 8.09994 7.3001 8.49994C7.2001 8.79994 7.1001 8.89994 6.8001 8.99994C6.4001 9.09994 6.0001 9.29994 5.6001 9.49994C5.4001 9.59994 5.1001 9.59994 4.9001 9.49994C4.6001 9.29994 4.2001 9.19995 3.9001 9.09995C3.6001 9.39995 3.3001 9.59993 3.1001 9.89993C3.3001 10.1999 3.4001 10.5999 3.6001 10.8999C3.7001 11.0999 3.7001 11.2999 3.6001 11.4999C3.4001 11.8999 3.2001 12.2999 3.1001 12.7999C3.0001 12.9999 2.9001 13.1999 2.7001 13.2999C2.4001 13.3999 2.0001 13.6 1.7001 13.7C1.7001 14.1 1.7001 14.3999 1.7001 14.7999C2.0001 14.8999 2.4001 15.1 2.7001 15.2C2.9001 15.3 3.1001 15.4 3.1001 15.7C3.2001 16.2 3.4001 16.5999 3.6001 16.9999C3.7001 17.1999 3.7001 17.4 3.6001 17.7C3.4001 18 3.3001 18.4 3.2001 18.7C3.3001 18.8 3.6001 18.9999 3.9001 19.2999ZM23.4001 26.7C24.2001 26.7 25.1001 26.7 25.9001 26.7C26.4001 26.7 26.5001 26.5999 26.5001 26.0999C26.5001 24.3999 26.5001 22.6999 26.5001 20.9999C26.5001 20.5999 26.4001 20.3999 25.9001 20.3999C24.2001 20.3999 22.5001 20.3999 20.8001 20.3999C20.4001 20.3999 20.2001 20.5999 20.2001 20.9999C20.2001 22.6999 20.2001 24.3999 20.2001 26.0999C20.2001 26.4999 20.4001 26.7 20.8001 26.7C21.7001 26.7 22.6001 26.7 23.4001 26.7ZM26.6001 14.0999C26.6001 13.2999 26.6001 12.3999 26.6001 11.5999C26.6001 11.1999 26.4001 10.9999 26.0001 10.9999C24.3001 10.9999 22.6001 10.9999 20.9001 10.9999C20.5001 10.9999 20.3001 11.1999 20.3001 11.5999C20.3001 13.2999 20.3001 15 20.3001 16.7C20.3001 17.1 20.5001 17.2999 20.9001 17.2999C22.6001 17.2999 24.3001 17.2999 26.0001 17.2999C26.4001 17.2999 26.6001 17.1 26.6001 16.7C26.6001 15.8 26.6001 14.9999 26.6001 14.0999ZM26.6001 4.69995C26.6001 3.89995 26.6001 2.99995 26.6001 2.19995C26.6001 1.79995 26.4001 1.59995 26.0001 1.59995C24.3001 1.59995 22.6001 1.59995 20.9001 1.59995C20.5001 1.59995 20.3001 1.79995 20.3001 2.19995C20.3001 3.89995 20.3001 5.59993 20.3001 7.29993C20.3001 7.69993 20.5001 7.89993 20.9001 7.89993C22.6001 7.89993 24.3001 7.89993 26.1001 7.89993C26.5001 7.89993 26.6001 7.69993 26.7001 7.29993C26.6001 6.39993 26.6001 5.59995 26.6001 4.69995Z" fill="white"/>
<path d="M12.7003 14.2C12.7003 16.7 10.7003 18.7 8.20029 18.6C5.70029 18.6 3.80029 16.5 3.80029 14C3.80029 11.5 5.90029 9.59998 8.40029 9.59998C10.7003 9.69998 12.7003 11.7 12.7003 14.2ZM11.8003 14.2C11.8003 12.2 10.2003 10.6 8.30029 10.6C6.30029 10.6 4.70029 12.2 4.70029 14.2C4.70029 16.2 6.30029 17.8 8.30029 17.8C10.2003 17.7 11.8003 16.1 11.8003 14.2Z" fill="white"/>
<path d="M22.8999 14.7999C23.3999 14.0999 23.7999 13.3999 24.2999 12.6999C24.2999 12.5999 24.3999 12.5999 24.4999 12.4999C24.6999 12.2999 24.8999 12.2999 25.0999 12.3999C25.2999 12.4999 25.2999 12.7999 25.1999 12.9999C25.1999 13.0999 25.0999 13.0999 25.0999 13.1999C24.5999 13.9999 23.9999 14.7999 23.4999 15.5999C23.1999 15.9999 22.9999 15.9999 22.5999 15.6999C22.3999 15.4999 22.0999 15.1999 21.8999 14.9999C21.6999 14.7999 21.5999 14.4999 21.7999 14.2999C21.9999 14.0999 22.2999 14.0999 22.4999 14.3999C22.5999 14.4999 22.7999 14.5999 22.8999 14.7999Z" fill="white"/>
<path d="M22.9 5.4C23.4 4.6 23.9 4 24.3 3.3C24.3 3.2 24.4 3.20002 24.4 3.10002C24.6 2.90002 24.8 2.90001 25 3.00001C25.2 3.10001 25.3 3.40002 25.2 3.60002C25.1 3.80002 25 3.90002 24.9 4.10002C24.4 4.80002 24 5.50002 23.5 6.20002C23.2 6.70002 23 6.7 22.6 6.3C22.4 6.1 22.1 5.80002 21.9 5.60002C21.7 5.40002 21.7 5.1 21.9 4.9C22.1 4.7 22.4 4.7 22.6 4.9C22.6 5.1 22.7 5.2 22.9 5.4Z" fill="white"/>
<path d="M10.9 14.2C10.9 15.7 9.7 16.9 8.2 16.9C6.7 16.9 5.5 15.7 5.5 14.2C5.5 12.7 6.7 11.5 8.2 11.5C9.7 11.5 10.9 12.6 10.9 14.2ZM10 14.1C10 13.1 9.2 12.3 8.2 12.3C7.2 12.3 6.4 13.1 6.4 14.1C6.4 15.1 7.2 15.9 8.2 15.9C9.2 15.9 10 15.1 10 14.1Z" fill="white"/>
</svg>
