<svg width="25" height="24" viewBox="0 0 25 24" fill="none" xmlns="http://www.w3.org/2000/svg">
<path d="M24.2 0.899963C23.9 1.69996 23.6 2.59996 23.3 3.39996C21.1 9.99996 18.8 16.6 16.6 23.2V23.2999C16.5 23.4999 16.3 23.7 16.1 23.7C15.8 23.7 15.7 23.5999 15.6 23.2999C15.2 22.3999 14.8 21.4999 14.4 20.5999C13.4 18.1999 12.3 15.8999 11.3 13.4999C11.3 13.3999 11.2 13.3999 11.2 13.2999C10.2 12.8999 9.19998 12.3999 8.09998 11.9999C5.79998 10.9999 3.49995 9.99996 1.19995 8.89996C0.899951 8.79996 0.800049 8.59993 0.800049 8.29993C0.800049 7.99993 1.00005 7.89993 1.30005 7.79993C6.50005 5.99993 11.7 4.29994 16.9 2.49994C19.1 1.79994 21.3 0.999927 23.5 0.299927C23.5 0.299927 23.6 0.299951 23.6 0.199951C23.7 0.199951 23.8 0.199951 23.9 0.199951C24.1 0.299951 24.2 0.399915 24.3 0.599915C24.2 0.699915 24.2 0.799963 24.2 0.899963ZM16 21.5999C18.1 15.2999 20.2 9.09996 22.4 2.89996C19 6.29996 15.6 9.69994 12.3 12.9999C13.5 15.8999 14.7 18.6999 16 21.5999ZM2.80005 8.39996C5.70005 9.69996 8.60002 10.9 11.4 12.2C14.8 8.79995 18.2 5.39991 21.5 2.09991C15.3 4.19991 9.10005 6.29996 2.80005 8.39996Z" fill="#878787"/>
</svg>
