<svg width="30" height="27" viewBox="0 0 30 27" fill="none" xmlns="http://www.w3.org/2000/svg">
<path d="M22.7 8.29993H27.8C28.7 8.29993 29.3 7.69993 29.3 6.79993V1.69995C29.3 1.59995 29.3 1.49993 29.3 1.29993C29.2 0.699927 28.8 0.399951 28.2 0.199951H22.3C21.5 0.499951 21.2 1.09993 21.2 1.89993C21.2 2.39993 21.2 2.99994 21.2 3.49994C21.2 3.59994 21.2 3.69993 21.2 3.79993C21 3.79993 20.7 3.79993 20.5 3.79993C19.6 3.79993 19 4.39993 19 5.29993C19 7.79993 19 10.2999 19 12.8999C19 12.9999 19 13.1 19 13.2H15V14.2H19C19 14.3 19 14.3999 19 14.4999C19 16.9999 19 19.4999 19 21.9999C19 22.8999 19.6 23.5999 20.5 23.4999C20.7 23.4999 21 23.4999 21.2 23.4999V25.5999C21.2 26.4999 21.8 26.9999 22.7 26.9999H27.9C28.8 26.9999 29.4 26.4999 29.4 25.5999V20.3999C29.4 19.4999 28.8 18.9999 28 18.9999C26.3 18.9999 24.5 18.9999 22.8 18.9999C21.9 18.9999 21.4 19.5999 21.4 20.4999V22.2999C21.4 22.3999 21.4 22.4999 21.4 22.5999H20.7C20.2 22.5999 20.1 22.4999 20.1 21.9999C20.1 19.4999 20.1 16.9999 20.1 14.3999C20.1 14.2999 20.1 14.1999 20.1 14.0999H21.4C21.5 14.1999 21.4 14.2999 21.4 14.3999C21.4 14.9999 21.4 15.6999 21.4 16.2999C21.4 17.0999 22 17.7 22.8 17.7C24.6 17.7 26.3 17.7 28.1 17.7C28.9 17.7 29.4 17.0999 29.5 16.2999V10.9999C29.5 10.1999 28.9 9.59995 28.1 9.59995C26.3 9.59995 24.5 9.59995 22.8 9.59995C22 9.59995 21.4 10.1999 21.4 10.9999C21.4 11.5999 21.4 12.2999 21.4 12.8999C21.4 12.9999 21.4 13.1 21.4 13.2H20.1V5.39993C20.1 5.29993 20.1 5.19995 20.1 5.19995C20.1 4.99995 20.2 4.79993 20.4 4.79993C20.7 4.69993 21.1 4.79993 21.4 4.79993V6.89993C21.2 7.79993 21.8 8.29993 22.7 8.29993ZM22.1 1.69995C22.1 1.29995 22.3 1.09995 22.7 1.09995H27.8C28.2 1.09995 28.4 1.29995 28.4 1.69995V6.79993C28.4 7.19993 28.2 7.39993 27.8 7.39993C26.1 7.39993 24.4 7.39993 22.6 7.39993C22.2 7.39993 22.1 7.19993 22.1 6.79993V1.69995ZM22.1 20.5999C22.1 20.1999 22.3 19.9999 22.7 19.9999C24.4 19.9999 26.1 19.9999 27.8 19.9999C28.2 19.9999 28.4 20.1999 28.4 20.5999V25.7C28.4 26.1 28.2 26.2999 27.8 26.2999H22.7C22.3 26.2999 22.1 26.1 22.1 25.7V20.5999ZM22.1 11.0999C22.1 10.6999 22.3 10.4999 22.7 10.4999H27.8C28.2 10.4999 28.4 10.6999 28.4 11.0999V16.2C28.4 16.6 28.2 16.7999 27.8 16.7999C26.1 16.7999 24.4 16.7999 22.7 16.7999C22.3 16.7999 22.1 16.7 22.1 16.2V11.0999Z" fill="#878787"/>
<path d="M24.7002 14.4C25.2002 13.7 25.6002 13 26.1002 12.3C26.1002 12.2 26.2002 12.2 26.3002 12.1C26.5002 11.9 26.7002 11.9 26.9002 12C27.1002 12.1 27.1002 12.4 27.0002 12.6C27.0002 12.7 26.9002 12.7 26.9002 12.8C26.4002 13.6 25.8002 14.4 25.3002 15.2C25.0002 15.6 24.8002 15.6 24.4002 15.3C24.2002 15.1 23.9002 14.8 23.7002 14.6C23.5002 14.4 23.4002 14.1 23.6002 13.9C23.8002 13.7 24.1002 13.7 24.3002 14C24.4002 14.1 24.6002 14.2 24.7002 14.4Z" fill="#878787"/>
<path d="M24.6998 4.99998C25.1998 4.19998 25.6998 3.59997 26.0998 2.89997C26.0998 2.79997 26.1998 2.79999 26.1998 2.69999C26.3998 2.49999 26.5998 2.49998 26.7998 2.59998C26.9998 2.69998 27.0998 2.99999 26.9998 3.19999C26.8998 3.39999 26.7998 3.49999 26.6998 3.69999C26.1998 4.39999 25.7998 5.09997 25.2998 5.79997C24.9998 6.29997 24.7998 6.29997 24.3998 5.89997C24.1998 5.69997 23.8998 5.39999 23.6998 5.19999C23.4998 4.99999 23.4998 4.69998 23.6998 4.49998C23.8998 4.29998 24.1998 4.29998 24.3998 4.49998C24.3998 4.59998 24.4998 4.79998 24.6998 4.99998Z" fill="#878787"/>
<path d="M10.2998 20.0999L10.1998 20.1999C9.4998 20.6999 8.8998 21.0999 8.1998 21.3999C8.0998 21.3999 8.0998 21.3999 7.9998 21.3999C7.8998 21.2999 7.7998 21.2999 7.6998 21.1999C7.5998 21.0999 7.4998 21.0999 7.3998 20.9999C5.5998 19.9999 4.3998 18.8999 3.3998 17.5999C2.2998 16.1999 1.7998 14.7999 1.8998 13.1999C1.8998 12.5999 1.8998 11.9999 1.8998 11.3999C1.8998 11.0999 1.8998 10.8999 1.8998 10.5999V8.19994C1.8998 7.99994 1.8998 7.99993 2.0998 7.99993C2.5998 7.99993 3.0998 7.89992 3.5998 7.79992C5.0998 7.49992 6.5998 6.89993 7.9998 5.89993H8.0998L8.1998 5.79992C8.1998 5.79992 8.2998 5.79993 8.2998 5.89993C8.7998 6.19993 9.1998 6.49992 9.6998 6.79992C11.1998 7.59992 12.6998 7.99994 14.1998 8.09994C14.3998 8.09994 14.3998 8.09992 14.3998 8.29992V9.99993C14.3998 11.1999 14.3998 12.2999 14.3998 13.4999C14.3998 13.6999 14.3998 13.8999 14.3998 14.1999C14.3998 14.4999 14.4998 14.7999 14.7998 14.7999C14.8998 14.7999 15.0998 14.7999 15.1998 14.6999C15.2998 14.5999 15.3998 14.4999 15.3998 14.2999C15.3998 14.0999 15.3998 13.8999 15.3998 13.5999V8.09994C15.3998 7.49994 14.9998 6.99993 14.2998 6.99993C13.0998 6.89993 11.9998 6.59994 10.7998 6.09994C10.0998 5.79994 9.3998 5.39993 8.6998 4.89993C8.2998 4.59993 7.7998 4.59993 7.3998 4.89993C7.2998 4.99993 7.1998 4.99994 7.0998 5.09994C5.3998 6.19994 3.6998 6.79993 1.7998 6.89993C1.2998 6.89993 0.799805 7.39993 0.799805 7.89993C0.799805 8.09993 0.799805 9.79993 0.799805 10.9999V11.9999V12.4999C0.799805 12.7999 0.799805 12.9999 0.799805 13.2999C0.799805 13.9999 0.8998 14.5999 1.0998 15.2999C1.4998 16.5999 2.1998 17.6999 3.1998 18.7999C4.3998 19.9999 5.7998 21.0999 7.4998 21.9999C7.6998 22.0999 7.8998 22.0999 8.0998 22.0999C8.2998 22.0999 8.4998 22.0999 8.5998 21.9999C9.1998 21.6999 9.5998 21.3999 9.9998 21.1999C10.2998 20.9999 10.5998 20.7999 10.7998 20.5999C10.8998 20.4999 10.9998 20.3999 10.9998 20.2999C10.9998 20.1999 10.9998 19.9999 10.8998 19.8999C10.7998 19.9999 10.4998 19.9999 10.2998 20.0999Z" fill="#878787"/>
<path d="M17.2998 16.5C16.5998 15.8 15.7998 15.5 14.7998 15.5C12.8998 15.5 11.2998 17.1 11.2998 19C11.2998 19.9 11.6998 20.8 12.2998 21.5C12.9998 22.2 13.7998 22.5 14.7998 22.5C16.6998 22.5 18.2998 20.9 18.2998 19C18.2998 18.1 17.8998 17.2 17.2998 16.5ZM17.2998 19C17.2998 20.4 16.1998 21.5 14.7998 21.5C13.3998 21.5 12.2998 20.4 12.2998 19C12.2998 18.3 12.5998 17.7 12.9998 17.2C13.4998 16.7 14.0998 16.5 14.7998 16.5C15.4998 16.5 16.0998 16.8 16.5998 17.2C16.9998 17.7 17.2998 18.3 17.2998 19Z" fill="#878787"/>
<path d="M5.9999 10.7999C5.9999 11.7999 6.7999 12.6 7.7999 12.7C7.8999 12.7 7.8999 12.7 7.9999 12.7C8.8999 12.7 9.6999 12.1 9.8999 11.2C9.9999 10.7 9.9999 10.1999 9.8999 9.79995C9.7999 8.79995 8.9999 8.09996 8.0999 7.99996C7.0999 7.89996 6.1999 8.49996 5.9999 9.49996C5.8999 9.69996 5.8999 9.99997 5.8999 10.2V10.2999V10.4C5.9999 10.6 5.9999 10.6999 5.9999 10.7999ZM7.9999 8.99996C8.0999 8.99996 8.0999 8.99996 7.9999 8.99996C8.5999 8.99996 8.9999 9.39996 8.9999 9.89996C8.9999 9.99996 8.9999 10.1 8.9999 10.2V10.2999C8.9999 10.3999 8.9999 10.4 8.9999 10.5C8.9999 10.6 8.9999 10.8 8.9999 10.9C8.8999 11.4 8.4999 11.7 7.9999 11.7C7.4999 11.7 7.0999 11.2999 7.0999 10.7999C7.0999 10.3999 7.0999 10.1 7.0999 9.69997C7.0999 9.29997 7.4999 8.99996 7.9999 8.99996Z" fill="#878787"/>
<path d="M11.5 15.2C11.5 14.1 10.6 13.2999 9.5 13.2999C8.5 13.2999 7.5 13.2999 6.5 13.2999C5.4 13.2999 4.6 14.1 4.5 15.2C4.5 15.4 4.5 15.4999 4.6 15.5999C4.7 15.6999 4.8 15.6999 4.9 15.7999C5.2 15.7999 5.4 15.5999 5.4 15.2999C5.5 14.6999 5.8 14.2999 6.5 14.2999C6.8 14.2999 7.2 14.2999 7.5 14.2999H9.4C10 14.2999 10.4 14.6999 10.4 15.2999C10.4 15.5999 10.6 15.7999 10.9 15.7999C11.4 15.6999 11.5 15.5 11.5 15.2Z" fill="#878787"/>
<path d="M15.6999 17.7999C15.5999 17.7999 15.5999 17.8999 15.4999 17.9999L14.3999 19.1L14.2999 18.9999C14.1999 18.8999 14.0999 18.8 13.9999 18.7C13.7999 18.5 13.4999 18.5 13.2999 18.7C13.0999 18.9 13.0999 19.1999 13.2999 19.3999C13.4999 19.5999 13.7999 19.9 13.9999 20.1C14.0999 20.2 14.2999 20.2999 14.3999 20.2999C14.4999 20.2999 14.6999 20.2 14.7999 20.1C15.2999 19.6 15.7999 19.1 16.2999 18.6L16.3999 18.4999C16.4999 18.2999 16.4999 17.9999 16.3999 17.8999C16.1999 17.6999 15.8999 17.5999 15.6999 17.7999Z" fill="#878787"/>
</svg>
