<svg width="154" height="33" viewBox="0 0 154 33" fill="none" xmlns="http://www.w3.org/2000/svg">
<path d="M16.3004 13.7251C16.3645 13.7892 16.3645 13.7892 16.3645 13.8533L18.2886 15.7133L19.3789 16.8036C22.3292 19.6256 21.1747 21.8062 19.0582 23.9227C17.0059 25.975 14.4405 26.5522 12.2598 24.4999L12.1957 24.4357C12.1316 24.3716 12.1316 24.3716 12.1316 24.3716L1.29261 13.3402C0.779524 12.8272 0.715385 12.8913 0.522977 13.5327C0.202298 14.4306 -0.0542421 15.7133 0.00989376 16.3546C0.266437 23.153 9.75854 32.581 16.3004 32.5169C21.6878 32.4527 26.498 27.4501 29.7689 22.9606C29.8972 22.7682 29.833 22.5117 29.7048 22.3834C26.2414 18.9842 22.714 15.2643 19.1865 11.8651L18.8658 11.5444L18.5451 11.2879L18.481 11.2238C18.2245 10.9672 17.8397 10.9031 17.3907 10.9672C16.6211 11.0314 15.8514 11.7369 15.7873 12.5706C15.7873 12.9554 15.8514 13.3402 16.108 13.5968L16.3004 13.7251Z" fill="url(#paint0_linear_164_1131)"/>
<path d="M16.4923 0C11.0408 0.0641358 5.90992 5.38741 2.70312 9.87692L13.7345 20.9083C13.7986 20.9724 13.7986 20.9724 13.8628 21.0365C14.2476 21.4214 14.7607 21.6138 15.3379 21.6138C16.0434 21.5496 16.7489 20.8441 16.7489 20.0104C16.813 19.369 16.4923 18.9201 15.9792 18.407L12.9007 15.3285L12.8366 15.2643C10.9125 13.2761 11.2332 10.839 13.4779 8.46593C15.402 6.47772 17.9675 5.77222 20.2763 8.01698L20.7253 8.46593L31.8208 19.5614C32.2056 18.7918 32.5904 17.4449 32.5904 16.2905C32.6546 9.42797 22.97 0 16.4923 0Z" fill="url(#paint1_linear_164_1131)"/>
<path d="M42.5977 30.4642V22.6396H43.688V30.4642H42.5977Z" fill="#161C21"/>
<path d="M46.5742 30.4642V24.692H47.6004V25.7823C48.1776 25.0127 48.819 24.5637 49.5886 24.5637C50.1017 24.5637 50.4865 24.692 50.743 25.0127C50.9996 25.3334 51.192 25.7823 51.192 26.2954V30.4001H50.1658V26.6161C50.1658 26.1671 50.1017 25.8464 49.9734 25.7182C49.8451 25.5258 49.6527 25.4616 49.3962 25.4616C48.7548 25.4616 48.1776 25.9106 47.6004 26.7443V30.4642H46.5742Z" fill="#161C21"/>
<path d="M55.68 30.5913C55.1669 30.5913 54.7821 30.463 54.4614 30.1424C54.2049 29.8217 54.0125 29.3727 54.0125 28.8597V25.4605H53.3711V24.6908H54.0766V23.6005L55.1028 23.5364V24.6908H56.5779V25.4605H55.1028V28.6672C55.1028 29.4369 55.4234 29.7576 56.0648 29.7576C56.1931 29.7576 56.3213 29.7576 56.5779 29.6934V30.463C56.1931 30.5272 55.9365 30.5913 55.68 30.5913Z" fill="#161C21"/>
<path d="M62.9928 30.2714C62.2873 30.5279 61.7101 30.5921 61.197 30.5921C60.3632 30.5921 59.6577 30.3355 59.1446 29.7583C58.6315 29.1811 58.375 28.4756 58.375 27.5777C58.375 26.6798 58.6315 25.9743 59.0805 25.4612C59.5294 24.884 60.1708 24.6274 60.8763 24.6274C61.5818 24.6274 62.0949 24.884 62.4797 25.3971C62.8645 25.9102 63.0569 26.6157 63.0569 27.5136V27.8342H59.4653C59.5936 29.2452 60.2349 29.8866 61.4535 29.8866C61.9025 29.8866 62.3514 29.7583 63.0569 29.5018V30.2714H62.9928ZM59.5294 26.9363H62.0307C62.0307 25.846 61.6459 25.3329 60.8763 25.3329C60.0425 25.3329 59.5936 25.9102 59.5294 26.9363Z" fill="#161C21"/>
<path d="M65.6211 30.4636V22.126H66.6473V30.5278L65.6211 30.4636Z" fill="#161C21"/>
<path d="M69.6016 30.4636V22.126H70.6277V30.5278L69.6016 30.4636Z" fill="#161C21"/>
<path d="M73.5117 23.6648V22.5745H74.5379V23.6648H73.5117ZM73.5117 30.4632V24.6909H74.5379V30.4632H73.5117Z" fill="#161C21"/>
<path d="M77.4864 32.3879L77.6147 31.49C78.1919 31.7465 78.7691 31.9389 79.4105 31.9389C80.5649 31.9389 81.1421 31.3617 81.1421 30.079V29.1811C80.7573 29.9507 80.1159 30.3997 79.2822 30.3997C78.5767 30.3997 78.0636 30.1431 77.6788 29.63C77.2298 29.117 77.1016 28.4756 77.1016 27.5777C77.1016 26.6798 77.3581 25.9743 77.8071 25.4612C78.256 24.884 78.8332 24.6274 79.6029 24.6274C80.2442 24.6274 80.7573 24.884 81.2063 25.3971V24.7557H82.2324V28.9245C82.2324 29.8224 82.1683 30.5279 82.1042 30.9128C82.04 31.3617 81.8476 31.6824 81.5911 32.0031C81.1421 32.452 80.4366 32.7727 79.4746 32.7727C78.7691 32.6444 78.0636 32.5803 77.4864 32.3879ZM81.078 28.4115V25.9743C80.629 25.5253 80.1801 25.2688 79.6029 25.2688C79.1539 25.2688 78.7691 25.4612 78.5125 25.846C78.256 26.2308 78.0636 26.7439 78.0636 27.4494C78.0636 28.7321 78.5126 29.3735 79.3463 29.3735C79.9877 29.4376 80.5649 29.1169 81.078 28.4115Z" fill="#161C21"/>
<path d="M89.0982 30.2714C88.3928 30.5279 87.8155 30.5921 87.3024 30.5921C86.4687 30.5921 85.7632 30.3355 85.2501 29.7583C84.737 29.1811 84.4805 28.4756 84.4805 27.5777C84.4805 26.6798 84.737 25.9743 85.186 25.4612C85.6349 24.884 86.2763 24.6274 86.9818 24.6274C87.6873 24.6274 88.2003 24.884 88.5852 25.3971C88.97 25.9102 89.1624 26.6157 89.1624 27.5136V27.8342H85.5708C85.699 29.2452 86.3404 29.8866 87.4949 29.8866C87.9438 29.8866 88.3928 29.7583 89.0982 29.5018V30.2714ZM85.6349 26.9363H88.1362C88.1362 25.846 87.7514 25.3329 86.9818 25.3329C86.148 25.3329 85.6991 25.9102 85.6349 26.9363Z" fill="#161C21"/>
<path d="M91.7266 30.4642V24.692H92.7527V25.7823C93.33 25.0127 93.9713 24.5637 94.7409 24.5637C95.254 24.5637 95.6388 24.692 95.8954 25.0127C96.1519 25.3334 96.3443 25.7823 96.3443 26.2954V30.4001H95.3182V26.6161C95.3182 26.1671 95.254 25.8464 95.1258 25.7182C94.9975 25.5258 94.8051 25.4616 94.5485 25.4616C93.9072 25.4616 93.33 25.9106 92.7527 26.7443V30.4642H91.7266Z" fill="#161C21"/>
<path d="M100.963 30.5913C100.45 30.5913 100.065 30.463 99.7443 30.1424C99.4877 29.8217 99.2953 29.3727 99.2953 28.8597V25.4605H98.5898V24.6908H99.2953V23.6005L100.322 23.5364V24.6908H101.797V25.4605H100.257V28.6672C100.257 29.4369 100.578 29.7576 101.219 29.7576C101.348 29.7576 101.476 29.7576 101.732 29.6934V30.463C101.476 30.5272 101.155 30.5913 100.963 30.5913Z" fill="#161C21"/>
<path d="M109.75 30.6562C109.237 30.6562 108.595 30.592 107.762 30.3355V29.2452C108.66 29.6941 109.365 29.8224 109.878 29.8224C110.327 29.8224 110.648 29.7583 110.904 29.5017C111.161 29.2452 111.289 28.9886 111.289 28.6038C111.289 28.2831 111.225 28.0266 111.033 27.8342C110.84 27.6418 110.52 27.3852 110.135 27.0646L109.622 26.7439C108.98 26.3591 108.531 25.9742 108.211 25.6536C107.954 25.3329 107.762 24.8839 107.762 24.4991C107.762 23.9219 108.018 23.4088 108.403 23.024C108.852 22.6392 109.365 22.4468 110.006 22.4468C110.584 22.4468 111.225 22.5109 111.866 22.7675V23.7295C111.033 23.4088 110.455 23.2164 110.071 23.2164C109.686 23.2164 109.365 23.2805 109.173 23.5371C108.916 23.7295 108.788 23.986 108.788 24.3067C108.788 24.5633 108.852 24.8198 109.044 25.0122C109.237 25.2046 109.558 25.4612 110.006 25.7818L110.584 26.1025C111.225 26.4873 111.674 26.8721 111.995 27.1928C112.251 27.5135 112.444 27.9625 112.444 28.4755C112.444 29.181 112.187 29.7583 111.674 30.0789C111.225 30.4638 110.584 30.6562 109.75 30.6562Z" fill="#161C21"/>
<path d="M115.263 32.5801L116.161 30.4636L113.98 24.6914H115.071L116.674 29.0526L118.406 24.6914H119.368L116.225 32.516H115.263V32.5801Z" fill="#161C21"/>
<path d="M122.829 30.5925C122.38 30.5925 121.803 30.5284 121.098 30.2718V29.3098C121.739 29.6305 122.38 29.8229 122.893 29.8229C123.15 29.8229 123.471 29.7587 123.663 29.5663C123.855 29.438 123.92 29.1815 123.92 28.9891C123.92 28.6043 123.663 28.3477 123.086 28.0912L122.509 27.8347C121.611 27.4498 121.162 26.9368 121.162 26.2313C121.162 25.7182 121.354 25.3334 121.675 25.0127C122.06 24.7561 122.509 24.5637 123.086 24.5637C123.407 24.5637 123.791 24.6279 124.24 24.692L124.497 24.7561V25.654C123.92 25.4616 123.471 25.3975 123.15 25.3975C122.509 25.3975 122.188 25.654 122.188 26.1671C122.188 26.4878 122.445 26.7443 122.958 26.9367L123.471 27.1933C124.048 27.4498 124.433 27.7064 124.689 27.9629C124.946 28.2195 125.074 28.5401 125.074 28.9891C125.074 29.5022 124.882 29.887 124.497 30.2718C123.92 30.4642 123.471 30.5925 122.829 30.5925Z" fill="#161C21"/>
<path d="M129.311 30.5913C128.797 30.5913 128.413 30.463 128.092 30.1424C127.835 29.8217 127.643 29.3727 127.643 28.8597V25.4605H126.938V24.6908H127.643V23.6005L128.669 23.5364V24.6908H130.144V25.4605H128.669V28.6672C128.669 29.4369 128.99 29.7576 129.631 29.7576C129.759 29.7576 129.888 29.7576 130.144 29.6934V30.463C129.824 30.5272 129.567 30.5913 129.311 30.5913Z" fill="#161C21"/>
<path d="M136.622 30.2714C135.916 30.5279 135.339 30.5921 134.826 30.5921C133.992 30.5921 133.287 30.3355 132.774 29.7583C132.26 29.1811 132.004 28.4756 132.004 27.5777C132.004 26.6798 132.26 25.9743 132.709 25.4612C133.158 24.884 133.8 24.6274 134.505 24.6274C135.211 24.6274 135.724 24.884 136.109 25.3971C136.493 25.9102 136.686 26.6157 136.686 27.5136V27.8342H133.094C133.222 29.2452 133.864 29.8866 135.018 29.8866C135.467 29.8866 135.916 29.7583 136.622 29.5018V30.2714ZM133.094 26.9363H135.596C135.596 25.846 135.211 25.3329 134.441 25.3329C133.607 25.3329 133.222 25.9102 133.094 26.9363Z" fill="#161C21"/>
<path d="M139.25 30.4642V24.692H140.276V25.7823C140.789 25.0127 141.431 24.5637 142.2 24.5637C142.97 24.5637 143.483 25.0127 143.74 25.7823C144.188 25.0127 144.83 24.5637 145.664 24.5637C146.177 24.5637 146.561 24.692 146.818 25.0127C147.075 25.2692 147.267 25.7182 147.267 26.2954V30.4642H146.241V26.4237C146.241 25.7823 145.984 25.4616 145.471 25.4616C144.958 25.4616 144.381 25.8464 143.804 26.6161V30.4642H142.777V26.4237C142.777 25.7823 142.521 25.4616 142.008 25.4616C141.495 25.4616 140.918 25.8464 140.34 26.6161V30.4642H139.25Z" fill="#161C21"/>
<path d="M151.564 30.5925C151.115 30.5925 150.538 30.5284 149.832 30.2718V29.3098C150.473 29.6305 151.115 29.8229 151.628 29.8229C151.884 29.8229 152.205 29.7587 152.397 29.5663C152.59 29.438 152.654 29.1815 152.654 28.9891C152.654 28.6043 152.397 28.3477 151.82 28.0912L151.243 27.8347C150.345 27.4498 149.896 26.9368 149.896 26.2313C149.896 25.7182 150.089 25.3334 150.409 25.0127C150.794 24.7561 151.243 24.5637 151.82 24.5637C152.141 24.5637 152.526 24.6279 152.975 24.692L153.231 24.7561V25.654C152.654 25.4616 152.205 25.3975 151.884 25.3975C151.243 25.3975 150.922 25.654 150.922 26.1671C150.922 26.4878 151.179 26.7443 151.692 26.9367L152.205 27.1933C152.782 27.4498 153.167 27.7064 153.424 27.9629C153.68 28.2195 153.808 28.5401 153.808 28.9891C153.808 29.5022 153.616 29.887 153.231 30.2718C152.654 30.4642 152.141 30.5925 151.564 30.5925Z" fill="#161C21"/>
<path d="M42.7227 14.8149V12.6984C44.0695 13.2756 45.1598 13.5321 46.1219 13.5321C46.7632 13.5321 47.2763 13.4039 47.7253 13.0832C48.1101 12.8267 48.3025 12.3777 48.3025 11.8646C48.3025 11.4157 48.1742 11.095 47.9177 10.8384C47.6611 10.5819 47.2122 10.2612 46.5708 9.81227L45.737 9.36332C44.6467 8.72196 43.813 8.0806 43.4282 7.56751C42.9792 6.99029 42.7227 6.2848 42.7227 5.51517C42.7227 4.48899 43.1075 3.65523 43.813 3.01387C44.5826 2.37251 45.5446 2.11597 46.7632 2.11597C47.7253 2.11597 48.8797 2.24424 50.0983 2.56492V4.55313C48.8156 4.10418 47.8535 3.7835 47.148 3.7835C46.5708 3.7835 46.1219 3.91177 45.8012 4.16832C45.4805 4.42486 45.2881 4.74554 45.2881 5.19449C45.2881 5.51517 45.4164 5.83585 45.6729 6.09239C45.9295 6.34893 46.3784 6.66961 47.0198 7.05443L47.9177 7.56751C49.1362 8.27301 49.9059 8.85023 50.3548 9.42745C50.8038 10.0047 51.0603 10.7102 51.0603 11.5439C51.0603 12.6984 50.6114 13.6604 49.7776 14.3018C48.9438 14.9431 47.7253 15.2638 46.2501 15.2638C45.1598 15.1997 44.0054 15.0714 42.7227 14.8149Z" fill="#161C21"/>
<path d="M58.3078 14.8782V9.6191L54.2031 2.30762H57.0251L60.0395 7.63089L63.1821 2.30762H65.2345L60.9374 9.6191V14.8782H58.3078Z" fill="#161C21"/>
<path d="M69.2734 14.8782V2.30762H71.5182L77.2263 10.9018V2.30762H79.2786V14.8141H76.9697L71.3258 6.28404V14.8782H69.2734Z" fill="#161C21"/>
<path d="M84.668 14.8782V2.30762H92.3643V4.03928H87.2334V7.56675H91.4664V9.23429H87.2334V13.0824H92.7491V14.8782H84.668Z" fill="#161C21"/>
<path d="M97.1094 14.8782V2.30762H101.727C104.228 2.30762 105.511 3.33379 105.511 5.45027C105.511 6.2199 105.255 6.92539 104.87 7.56675C104.421 8.20811 103.844 8.65706 103.074 9.04188L107.115 14.8782H103.972L100.893 9.74737H99.4824V14.8782H97.1094ZM99.4824 8.07984H100.06C101.92 8.07984 102.817 7.31021 102.817 5.77095C102.817 4.68064 101.984 4.10342 100.316 4.10342H99.4183V8.07984H99.4824Z" fill="#161C21"/>
<path d="M120.904 14.622C119.365 15.0709 118.018 15.1992 116.928 15.1992C114.811 15.1992 113.144 14.622 111.989 13.4675C110.835 12.3131 110.258 10.7097 110.258 8.52908C110.258 6.4126 110.835 4.74507 111.989 3.65476C113.144 2.50032 114.747 1.9231 116.864 1.9231C118.211 1.9231 119.558 2.05137 120.84 2.37204V4.42439C119.301 3.84717 118.082 3.65476 117.056 3.65476C115.773 3.65476 114.747 4.10371 114.042 4.93748C113.336 5.77124 112.952 6.98982 112.952 8.52908C112.952 10.0042 113.336 11.2228 114.106 12.0566C114.876 12.8903 115.902 13.3393 117.249 13.3393C117.505 13.3393 117.89 13.2751 118.275 13.211V9.10631H120.84L120.904 14.622Z" fill="#161C21"/>
<path d="M126.035 14.8782V2.30762H128.601V14.8141H126.035V14.8782Z" fill="#161C21"/>
<path d="M133.859 14.8782V2.30762H141.556V4.03928H136.425V7.56675H140.658V9.23429H136.425V13.0824H141.94V14.8782H133.859Z" fill="#161C21"/>
<path d="M145.66 14.8149V12.6984C147.007 13.2756 148.097 13.5321 149.059 13.5321C149.701 13.5321 150.214 13.4039 150.663 13.0832C151.048 12.8267 151.24 12.3777 151.24 11.8646C151.24 11.4157 151.112 11.095 150.855 10.8384C150.599 10.5819 150.15 10.2612 149.508 9.81227L148.675 9.36332C147.584 8.72196 146.75 8.0806 146.366 7.56751C145.917 6.99029 145.66 6.2848 145.66 5.51517C145.66 4.48899 146.045 3.65523 146.75 3.01387C147.456 2.37251 148.482 2.11597 149.701 2.11597C150.663 2.11597 151.817 2.24424 153.036 2.56492V4.55313C151.753 4.10418 150.791 3.7835 150.086 3.7835C149.508 3.7835 149.059 3.91177 148.739 4.16832C148.418 4.42486 148.226 4.74554 148.226 5.19449C148.226 5.51517 148.354 5.83585 148.61 6.09239C148.867 6.34893 149.316 6.66961 149.957 7.05443L150.855 7.56751C152.074 8.27301 152.843 8.85023 153.292 9.42745C153.741 10.0047 153.998 10.7102 153.998 11.5439C153.998 12.6984 153.549 13.6604 152.715 14.3018C151.881 14.9431 150.663 15.2638 149.188 15.2638C148.097 15.1997 146.943 15.0714 145.66 14.8149Z" fill="#161C21"/>
<defs>
<linearGradient id="paint0_linear_164_1131" x1="0" y1="21.7306" x2="29.8369" y2="21.7306" gradientUnits="userSpaceOnUse">
<stop stop-color="#005055"/>
<stop offset="1" stop-color="#006464"/>
</linearGradient>
<linearGradient id="paint1_linear_164_1131" x1="2.70312" y1="10.8069" x2="32.5888" y2="10.8069" gradientUnits="userSpaceOnUse">
<stop stop-color="#005055"/>
<stop offset="1" stop-color="#006464"/>
</linearGradient>
</defs>
</svg>
